<svg xmlns="http://www.w3.org/2000/svg" viewBox="0 0 50 50" width="50" height="50" preserveAspectRatio="xMidYMid meet" style="width: 100%; height: 100%; transform: translate3d(0px, 0px, 0px); content-visibility: visible;"><defs><clipPath id="__lottie_element_2"><rect width="50" height="50" x="0" y="0"></rect></clipPath><filter id="__lottie_element_10" filterUnits="objectBoundingBox" x="0%" y="0%" width="100%" height="100%"><feComponentTransfer in="SourceGraphic"><feFuncA type="table" tableValues="1.0 0.0"></feFuncA></feComponentTransfer></filter><mask id="__lottie_element_9" mask-type="alpha"><g filter="url(#__lottie_element_10)"><rect width="50" height="50" x="0" y="0" fill="#ffffff" opacity="0"></rect><g transform="matrix(1,0,0,1,0,0.1465316116809845)" opacity="1" style="display: block;"><path fill="rgb(245,108,109)" fill-opacity="1" d=" M25,8 C25,8 25,40 25,40 C25,40 16.21,37.36 7.59,37.01 C7.59,37.01 7.36,5.05 7.36,5.05 C14.63,5.86 25,8 25,8z"></path><g opacity="1" transform="matrix(1,0,0,1,25,23)"><path stroke-linecap="round" stroke-linejoin="round" fill-opacity="0" stroke="rgb(245,108,109)" stroke-opacity="1" stroke-width="2" d=" M0,-15 C0,-15 0,17 0,17 C0,17 -8.791275024414062,14.36352825164795 -17.409696578979492,14.012076377868652 C-17.409696578979492,14.012076377868652 -17.641334533691406,-17.949350357055664 -17.641334533691406,-17.949350357055664 C-10.371904373168945,-17.137786865234375 0,-15 0,-15z"></path></g></g></g></mask></defs><g clip-path="url(#__lottie_element_2)"><g transform="matrix(1,0,0,1,0,0.1465316116809845)" opacity="1" style="display: block;"><g opacity="1" transform="matrix(1,0,0,1,25,28)"><path stroke-linecap="butt" stroke-linejoin="miter" fill-opacity="0" stroke-miterlimit="10" stroke="rgb(245,108,109)" stroke-opacity="1" stroke-width="2" d=" M-20,-16 C-20,-16 -22,-16 -22,-16 C-23.100000381469727,-16 -24,-15.100000381469727 -24,-14 C-24,-14 -24,12 -24,12 C-24,13.100000381469727 -23.100000381469727,14 -22,14 C-22,14 -20,14 -20,14 C-10.600000381469727,14 -1.2000000476837158,15.800000190734863 -0.800000011920929,15.899999618530273 C-0.5,15.899999618530273 -0.30000001192092896,16 0,16 C0.30000001192092896,16 0.5,16 0.800000011920929,15.899999618530273 C1.2000000476837158,15.800000190734863 10.600000381469727,14 20,14 C20,14 22,14 22,14 C23.100000381469727,14 24,13.100000381469727 24,12 C24,12 24,-14 24,-14 C24,-15.100000381469727 23.100000381469727,-16 22,-16 C22,-16 20,-16 20,-16"></path></g></g><g transform="matrix(1,0,0,1,0,0.1465316116809845)" opacity="1" style="display: block;"><g opacity="1" transform="matrix(1,0,0,1,0,0)"><path stroke-linecap="butt" stroke-linejoin="round" fill-opacity="0" stroke="rgb(245,108,109)" stroke-opacity="1" stroke-width="2" d=" M25,40 C25,40 25,8 25,8"></path></g></g><g mask="url(#__lottie_element_9)" style="display: block;"><g transform="matrix(1,0,0,1,0,0.1465316116809845)" opacity="1"><g opacity="1" transform="matrix(1,0,0,1,25,23)"><path stroke-linecap="round" stroke-linejoin="round" fill-opacity="0" stroke="rgb(245,108,109)" stroke-opacity="1" stroke-width="2" d=" M0,-15 C0,-15 -10,-17 -20,-17 C-20,-17 -20,15 -20,15 C-10,15 0,17 0,17 C0,17 10,15.235655784606934 20,15.158370971679688 C20,15.158370971679688 20,-16.841629028320312 20,-16.841629028320312 C10.026394844055176,-16.685157775878906 0,-15 0,-15z"></path></g></g></g><g transform="matrix(1,0,0,1,0,0.1465316116809845)" opacity="1" style="display: block;"><g opacity="1" transform="matrix(1,0,0,1,25,23)"><path stroke-linecap="round" stroke-linejoin="round" fill-opacity="0" stroke="rgb(245,108,109)" stroke-opacity="1" stroke-width="2" d=" M0,-15 C0,-15 0,17 0,17 C0,17 -8.791275024414062,14.36352825164795 -17.409696578979492,14.012076377868652 C-17.409696578979492,14.012076377868652 -17.641334533691406,-17.949350357055664 -17.641334533691406,-17.949350357055664 C-10.371904373168945,-17.137786865234375 0,-15 0,-15z"></path></g></g></g></svg>