<svg xmlns="http://www.w3.org/2000/svg" xmlns:xlink="http://www.w3.org/1999/xlink" preserveAspectRatio="xMidYMid meet" width="500" height="500" viewBox="0 0 500 500" style="width:100%;height:100%"><defs><animate repeatCount="indefinite" dur="2.5s" begin="0s" xlink:href="#_R_G_L_1_G_L_4_G_M" fill="freeze" attributeName="opacity" from="0" to="0" keyTimes="0;0.6;0.6;0.6000007;0.6066667;0.6066667;1" values="0;0;0;1;1;0;0" keySplines="0 0 0 0;0 0 0 0;0 0 0 0;0 0 0 0;0 0 0 0;0 0 0 0" calcMode="spline"/><animate repeatCount="indefinite" dur="2.5s" begin="0s" xlink:href="#_R_G_L_1_G_L_3_G_M" fill="freeze" attributeName="opacity" from="0" to="0" keyTimes="0;0.6;1" values="0;0;0" keySplines="0 0 0 0;0 0 0 0" calcMode="spline"/><animate repeatCount="indefinite" dur="2.5s" begin="0s" xlink:href="#_R_G_L_1_G_L_2_G_D_0_P_0" fill="freeze" attributeName="d" attributeType="XML" from="M-46.86 -109.37 C-46.86,-109.37 46.88,1.73 46.88,1.73 C46.88,1.73 -46.88,109.37 -46.88,109.37 " to="M-46.86 -109.37 C-46.86,-109.37 46.88,1.73 46.88,1.73 C46.88,1.73 -46.88,109.37 -46.88,109.37 " keyTimes="0;0.6066667;0.7333333;1" values="M-46.86 -109.37 C-46.86,-109.37 46.88,1.73 46.88,1.73 C46.88,1.73 -46.88,109.37 -46.88,109.37 ;M-46.86 -109.37 C-46.86,-109.37 46.88,1.73 46.88,1.73 C46.88,1.73 -46.88,109.37 -46.88,109.37 ;M-23.83 -55.61 C-23.83,-55.61 23.83,0.88 23.83,0.88 C23.83,0.88 -23.83,55.61 -23.83,55.61 ;M-46.86 -109.37 C-46.86,-109.37 46.88,1.73 46.88,1.73 C46.88,1.73 -46.88,109.37 -46.88,109.37 " keySplines="0.333 0 0.123 1;0.333 0 0.123 1;0.6 0 0.4 1" calcMode="spline"/><animateMotion repeatCount="indefinite" dur="2.5s" begin="0s" xlink:href="#_R_G_L_1_G_L_2_G" fill="freeze" keyTimes="0;0.6;0.6066667;0.7333333;1" path="M395.83 250 C395.83,250 395.83,250 395.83,250 C395.83,250 395.83,250 395.83,250 C404.17,250 445.83,250 445.83,250 C445.83,250 404.17,250 395.83,250 " keyPoints="0;0;0;0.5;1" keySplines="0.333 0 0.123 1;0.333 0 0.123 1;0.333 0 0.123 1;0.6 0 0.4 1" calcMode="spline"/><animate repeatCount="indefinite" dur="2.5s" begin="0s" xlink:href="#_R_G_L_1_G_L_2_G_M" fill="freeze" attributeName="opacity" from="0" to="1" keyTimes="0;0.6;0.6066667;0.6066673;1" values="0;0;0;1;1" keySplines="0 0 0 0;0 0 0 0;0 0 0 0;0 0 0 0" calcMode="spline"/><animate repeatCount="indefinite" dur="2.5s" begin="0s" xlink:href="#_R_G_L_1_G_L_1_G_D_0_P_0" fill="freeze" attributeName="d" attributeType="XML" from="M46.86 109.37 C46.86,109.37 -46.88,-1.73 -46.88,-1.73 C-46.88,-1.73 46.88,-109.37 46.88,-109.37 " to="M46.86 109.37 C46.86,109.37 -46.88,-1.73 -46.88,-1.73 C-46.88,-1.73 46.88,-109.37 46.88,-109.37 " keyTimes="0;0.6066667;0.7333333;1" values="M46.86 109.37 C46.86,109.37 -46.88,-1.73 -46.88,-1.73 C-46.88,-1.73 46.88,-109.37 46.88,-109.37 ;M46.86 109.37 C46.86,109.37 -46.88,-1.73 -46.88,-1.73 C-46.88,-1.73 46.88,-109.37 46.88,-109.37 ;M23.57 55 C23.57,55 -23.57,-0.87 -23.57,-0.87 C-23.57,-0.87 23.57,-55 23.57,-55 ;M46.86 109.37 C46.86,109.37 -46.88,-1.73 -46.88,-1.73 C-46.88,-1.73 46.88,-109.37 46.88,-109.37 " keySplines="0.333 0 0.123 1;0.333 0 0.123 1;0.6 0 0.4 1" calcMode="spline"/><animateMotion repeatCount="indefinite" dur="2.5s" begin="0s" xlink:href="#_R_G_L_1_G_L_1_G" fill="freeze" keyTimes="0;0.6;0.6066667;0.7333333;1" path="M104.16 250 C104.16,250 104.16,250 104.16,250 C104.16,250 104.16,250 104.16,250 C95.83,250 54.16,250 54.16,250 C54.16,250 95.83,250 104.16,250 " keyPoints="0;0;0;0.5;1" keySplines="0.333 0 0.123 1;0.333 0 0.123 1;0.333 0 0.123 1;0.6 0 0.4 1" calcMode="spline"/><animate repeatCount="indefinite" dur="2.5s" begin="0s" xlink:href="#_R_G_L_1_G_L_1_G_M" fill="freeze" attributeName="opacity" from="0" to="1" keyTimes="0;0.6;0.6066667;0.6066673;1" values="0;0;0;1;1" keySplines="0 0 0 0;0 0 0 0;0 0 0 0;0 0 0 0" calcMode="spline"/><animateTransform repeatCount="indefinite" dur="2.5s" begin="0s" xlink:href="#_R_G_L_1_G_L_0_G" fill="freeze" attributeName="transform" from="0" to="180" type="rotate" additive="sum" keyTimes="0;0.6;0.6066667;1" values="0;0;0;180" keySplines="0.511 0 0.097 1;0.511 0 0.097 1;0.511 0 0.097 1" calcMode="spline"/><animate repeatCount="indefinite" dur="2.5s" begin="0s" xlink:href="#_R_G_L_1_G_L_0_G_M" fill="freeze" attributeName="opacity" from="0" to="1" keyTimes="0;0.6;0.6066667;0.6066673;1" values="0;0;0;1;1" keySplines="0 0 0 0;0 0 0 0;0 0 0 0;0 0 0 0" calcMode="spline"/><animate repeatCount="indefinite" dur="2.5s" begin="0s" xlink:href="#_R_G_L_1_G_M" fill="freeze" attributeName="opacity" from="0" to="1" keyTimes="0;0.6;0.6000007;1" values="0;0;1;1" keySplines="0 0 0 0;0 0 0 0;0 0 0 0" calcMode="spline"/><animate repeatCount="indefinite" dur="2.5s" begin="0s" xlink:href="#_R_G_L_0_G_L_3_G_M" fill="freeze" attributeName="opacity" from="0" to="1" keyTimes="0;0.4;0.4000007;1" values="0;0;1;1" keySplines="0 0 0 0;0 0 0 0;0 0 0 0" calcMode="spline"/><animate repeatCount="indefinite" dur="2.5s" begin="0s" xlink:href="#_R_G_L_0_G_L_2_G_D_0_P_0" fill="freeze" attributeName="d" attributeType="XML" from="M-23.83 -55.61 C-23.83,-55.61 23.83,0.88 23.83,0.88 C23.83,0.88 -23.83,55.61 -23.83,55.61 " to="M-46.86 -109.37 C-46.86,-109.37 46.88,1.73 46.88,1.73 C46.88,1.73 -46.88,109.37 -46.88,109.37 " keyTimes="0;0.1333333;0.4;1" values="M-23.83 -55.61 C-23.83,-55.61 23.83,0.88 23.83,0.88 C23.83,0.88 -23.83,55.61 -23.83,55.61 ;M-23.83 -55.61 C-23.83,-55.61 23.83,0.88 23.83,0.88 C23.83,0.88 -23.83,55.61 -23.83,55.61 ;M-46.86 -109.37 C-46.86,-109.37 46.88,1.73 46.88,1.73 C46.88,1.73 -46.88,109.37 -46.88,109.37 ;M-46.86 -109.37 C-46.86,-109.37 46.88,1.73 46.88,1.73 C46.88,1.73 -46.88,109.37 -46.88,109.37 " keySplines="0.333 0 0.2 1;0.333 0 0.2 1;0 0 0 0" calcMode="spline"/><animateMotion repeatCount="indefinite" dur="2.5s" begin="0s" xlink:href="#_R_G_L_0_G_L_2_G" fill="freeze" keyTimes="0;0.1333333;0.4;1" path="M445.83 250 C445.83,250 445.83,250 445.83,250 C437.5,250 404.17,250 395.83,250 C395.83,250 395.83,250 395.83,250 " keyPoints="0;0;1;1" keySplines="0.333 0 0.2 1;0.333 0 0.2 1;0 0 0 0" calcMode="spline"/><animate repeatCount="indefinite" dur="2.5s" begin="0s" xlink:href="#_R_G_L_0_G_L_2_G_M" fill="freeze" attributeName="opacity" from="0" to="0" keyTimes="0;0.0066667;0.0066673;0.4;0.4;1" values="0;0;1;1;0;0" keySplines="0 0 0 0;0 0 0 0;0 0 0 0;0 0 0 0;0 0 0 0" calcMode="spline"/><animate repeatCount="indefinite" dur="2.5s" begin="0s" xlink:href="#_R_G_L_0_G_L_1_G_D_0_P_0" fill="freeze" attributeName="d" attributeType="XML" from="M23.57 55 C23.57,55 -23.57,-0.87 -23.57,-0.87 C-23.57,-0.87 23.57,-55 23.57,-55 " to="M46.86 109.37 C46.86,109.37 -46.88,-1.73 -46.88,-1.73 C-46.88,-1.73 46.88,-109.37 46.88,-109.37 " keyTimes="0;0.1333333;0.4;1" values="M23.57 55 C23.57,55 -23.57,-0.87 -23.57,-0.87 C-23.57,-0.87 23.57,-55 23.57,-55 ;M23.57 55 C23.57,55 -23.57,-0.87 -23.57,-0.87 C-23.57,-0.87 23.57,-55 23.57,-55 ;M46.86 109.37 C46.86,109.37 -46.88,-1.73 -46.88,-1.73 C-46.88,-1.73 46.88,-109.37 46.88,-109.37 ;M46.86 109.37 C46.86,109.37 -46.88,-1.73 -46.88,-1.73 C-46.88,-1.73 46.88,-109.37 46.88,-109.37 " keySplines="0.333 0 0.2 1;0.333 0 0.2 1;0 0 0 0" calcMode="spline"/><animateMotion repeatCount="indefinite" dur="2.5s" begin="0s" xlink:href="#_R_G_L_0_G_L_1_G" fill="freeze" keyTimes="0;0.1333333;0.4;1" path="M54.16 250 C54.16,250 54.16,250 54.16,250 C54.16,250 104.16,250 104.16,250 C104.16,250 104.16,250 104.16,250 " keyPoints="0;0;1;1" keySplines="0.333 0 0.2 1;0.333 0 0.2 1;0 0 0 0" calcMode="spline"/><animate repeatCount="indefinite" dur="2.5s" begin="0s" xlink:href="#_R_G_L_0_G_L_1_G_M" fill="freeze" attributeName="opacity" from="0" to="0" keyTimes="0;0.0066667;0.0066673;0.4;0.4;1" values="0;0;1;1;0;0" keySplines="0 0 0 0;0 0 0 0;0 0 0 0;0 0 0 0;0 0 0 0" calcMode="spline"/><animateTransform repeatCount="indefinite" dur="2.5s" begin="0s" xlink:href="#_R_G_L_0_G_L_0_G" fill="freeze" attributeName="transform" from="74.5" to="0" type="rotate" additive="sum" keyTimes="0;0.1333333;0.4;1" values="74.5;74.5;0;0" keySplines="0.333 0 0.2 1;0.333 0 0.2 1;0 0 0 0" calcMode="spline"/><animate repeatCount="indefinite" dur="2.5s" begin="0s" xlink:href="#_R_G_L_0_G_L_0_G_M" fill="freeze" attributeName="opacity" from="0" to="0" keyTimes="0;0.0066667;0.0066673;0.4;0.4;1" values="0;0;1;1;0;0" keySplines="0 0 0 0;0 0 0 0;0 0 0 0;0 0 0 0;0 0 0 0" calcMode="spline"/><animate repeatCount="indefinite" dur="2.5s" begin="0s" xlink:href="#_R_G_L_0_G_M" fill="freeze" attributeName="opacity" from="1" to="0" keyTimes="0;0.6;0.6;1" values="1;1;0;0" keySplines="0 0 0 0;0 0 0 0;0 0 0 0" calcMode="spline"/><animate attributeType="XML" attributeName="opacity" dur="3s" from="0" to="1" xlink:href="#time_group"/></defs><g id="_R_G"><g id="_R_G_L_1_G_M"><g id="_R_G_L_1_G"><g id="_R_G_L_1_G_L_4_G_M"><g id="_R_G_L_1_G_L_4_G" transform=" translate(250.002, 249.924) scale(20.83, 20.83) translate(-250, -249.996)" class="primary design"><path id="_R_G_L_1_G_L_4_G_D_0_P_0" fill="#f56c6d" fill-opacity="1" fill-rule="nonzero" d=" M255.32 244.27 C255.05,243.95 254.58,243.91 254.26,244.18 C253.94,244.45 253.9,244.92 254.17,245.24 C254.17,245.24 258.25,250.08 258.25,250.08 C258.25,250.08 254.17,254.76 254.17,254.76 C253.9,255.07 253.93,255.55 254.24,255.82 C254.4,255.94 254.57,256 254.75,256 C254.96,256 255.17,255.91 255.32,255.74 C255.32,255.74 259.82,250.57 259.82,250.57 C260.06,250.29 260.07,249.88 259.83,249.59 C259.83,249.59 255.32,244.27 255.32,244.27z "/><path id="_R_G_L_1_G_L_4_G_D_1_P_0" fill="#f56c6d" fill-opacity="1" fill-rule="nonzero" d=" M245.74 244.18 C245.43,243.91 244.96,243.95 244.68,244.26 C244.68,244.26 240.18,249.43 240.18,249.43 C239.94,249.71 239.93,250.12 240.17,250.41 C240.17,250.41 244.67,255.74 244.67,255.74 C244.82,255.91 245.04,256 245.25,256 C245.42,256 245.59,255.94 245.73,255.82 C246.05,255.55 246.09,255.08 245.82,254.76 C245.82,254.76 241.74,249.92 241.74,249.92 C241.74,249.92 245.82,245.24 245.82,245.24 C246.09,244.93 246.05,244.46 245.74,244.18z "/><path id="_R_G_L_1_G_L_4_G_D_2_P_0" fill="#f56c6d" fill-opacity="1" fill-rule="nonzero" d=" M251.7 243.9 C251.3,243.79 250.89,244.02 250.78,244.42 C250.78,244.42 247.78,255.17 247.78,255.17 C247.67,255.57 247.9,255.98 248.3,256.09 C248.37,256.11 248.43,256.12 248.5,256.12 C248.83,256.12 249.13,255.9 249.22,255.57 C249.22,255.57 252.22,244.82 252.22,244.82 C252.33,244.43 252.1,244.01 251.7,243.9z "/></g></g><g id="_R_G_L_1_G_L_3_G_M"><g id="_R_G_L_1_G_L_3_G" transform=" translate(250.002, 249.924) scale(20.83, 20.83) translate(-250, -249.996)" class="primary design"><path id="_R_G_L_1_G_L_3_G_D_0_P_0" fill="#f56c6d" fill-opacity="1" fill-rule="nonzero" d=" M255.32 244.27 C255.05,243.95 254.58,243.91 254.26,244.18 C253.94,244.45 253.9,244.92 254.17,245.24 C254.17,245.24 258.25,250.08 258.25,250.08 C258.25,250.08 254.17,254.76 254.17,254.76 C253.9,255.07 253.93,255.55 254.24,255.82 C254.4,255.94 254.57,256 254.75,256 C254.96,256 255.17,255.91 255.32,255.74 C255.32,255.74 259.82,250.57 259.82,250.57 C260.06,250.29 260.07,249.88 259.83,249.59 C259.83,249.59 255.32,244.27 255.32,244.27z "/><path id="_R_G_L_1_G_L_3_G_D_1_P_0" fill="#f56c6d" fill-opacity="1" fill-rule="nonzero" d=" M245.74 244.18 C245.43,243.91 244.96,243.95 244.68,244.26 C244.68,244.26 240.18,249.43 240.18,249.43 C239.94,249.71 239.93,250.12 240.17,250.41 C240.17,250.41 244.67,255.74 244.67,255.74 C244.82,255.91 245.04,256 245.25,256 C245.42,256 245.59,255.94 245.73,255.82 C246.05,255.55 246.09,255.08 245.82,254.76 C245.82,254.76 241.74,249.92 241.74,249.92 C241.74,249.92 245.82,245.24 245.82,245.24 C246.09,244.93 246.05,244.46 245.74,244.18z "/><path id="_R_G_L_1_G_L_3_G_D_2_P_0" fill="#f56c6d" fill-opacity="1" fill-rule="nonzero" d=" M251.7 243.9 C251.3,243.79 250.89,244.02 250.78,244.42 C250.78,244.42 247.78,255.17 247.78,255.17 C247.67,255.57 247.9,255.98 248.3,256.09 C248.37,256.11 248.43,256.12 248.5,256.12 C248.83,256.12 249.13,255.9 249.22,255.57 C249.22,255.57 252.22,244.82 252.22,244.82 C252.33,244.43 252.1,244.01 251.7,243.9z "/></g></g><g id="_R_G_L_1_G_L_2_G_M"><g id="_R_G_L_1_G_L_2_G" class="primary design"><path id="_R_G_L_1_G_L_2_G_D_0_P_0" stroke="#f56c6d" stroke-linecap="round" stroke-linejoin="round" fill="none" stroke-width="31.3" stroke-opacity="1" d=" M-46.86 -109.37 C-46.86,-109.37 46.88,1.73 46.88,1.73 C46.88,1.73 -46.88,109.37 -46.88,109.37 "/></g></g><g id="_R_G_L_1_G_L_1_G_M"><g id="_R_G_L_1_G_L_1_G" class="primary design"><path id="_R_G_L_1_G_L_1_G_D_0_P_0" stroke="#f56c6d" stroke-linecap="round" stroke-linejoin="round" fill="none" stroke-width="31.3" stroke-opacity="1" d=" M46.86 109.37 C46.86,109.37 -46.88,-1.73 -46.88,-1.73 C-46.88,-1.73 46.88,-109.37 46.88,-109.37 "/></g></g><g id="_R_G_L_1_G_L_0_G_M"><g id="_R_G_L_1_G_L_0_G" transform=" translate(249.998, 250.003)" class="primary design"><path id="_R_G_L_1_G_L_0_G_D_0_P_0" stroke="#f56c6d" stroke-linecap="round" stroke-linejoin="round" fill="none" stroke-width="31.3" stroke-opacity="1" d=" M-31.25 111.98 C-31.25,111.98 31.25,-111.98 31.25,-111.98 "/></g></g></g></g><g id="_R_G_L_0_G_M"><g id="_R_G_L_0_G"><g id="_R_G_L_0_G_L_3_G_M"><g id="_R_G_L_0_G_L_3_G" transform=" translate(250.002, 249.924) scale(20.83, 20.83) translate(-250, -249.996)" class="primary design"><path id="_R_G_L_0_G_L_3_G_D_0_P_0" fill="#f56c6d" fill-opacity="1" fill-rule="nonzero" d=" M255.32 244.27 C255.05,243.95 254.58,243.91 254.26,244.18 C253.94,244.45 253.9,244.92 254.17,245.24 C254.17,245.24 258.25,250.08 258.25,250.08 C258.25,250.08 254.17,254.76 254.17,254.76 C253.9,255.07 253.93,255.55 254.24,255.82 C254.4,255.94 254.57,256 254.75,256 C254.96,256 255.17,255.91 255.32,255.74 C255.32,255.74 259.82,250.57 259.82,250.57 C260.06,250.29 260.07,249.88 259.83,249.59 C259.83,249.59 255.32,244.27 255.32,244.27z "/><path id="_R_G_L_0_G_L_3_G_D_1_P_0" fill="#f56c6d" fill-opacity="1" fill-rule="nonzero" d=" M245.74 244.18 C245.43,243.91 244.96,243.95 244.68,244.26 C244.68,244.26 240.18,249.43 240.18,249.43 C239.94,249.71 239.93,250.12 240.17,250.41 C240.17,250.41 244.67,255.74 244.67,255.74 C244.82,255.91 245.04,256 245.25,256 C245.42,256 245.59,255.94 245.73,255.82 C246.05,255.55 246.09,255.08 245.82,254.76 C245.82,254.76 241.74,249.92 241.74,249.92 C241.74,249.92 245.82,245.24 245.82,245.24 C246.09,244.93 246.05,244.46 245.74,244.18z "/><path id="_R_G_L_0_G_L_3_G_D_2_P_0" fill="#f56c6d" fill-opacity="1" fill-rule="nonzero" d=" M251.7 243.9 C251.3,243.79 250.89,244.02 250.78,244.42 C250.78,244.42 247.78,255.17 247.78,255.17 C247.67,255.57 247.9,255.98 248.3,256.09 C248.37,256.11 248.43,256.12 248.5,256.12 C248.83,256.12 249.13,255.9 249.22,255.57 C249.22,255.57 252.22,244.82 252.22,244.82 C252.33,244.43 252.1,244.01 251.7,243.9z "/></g></g><g id="_R_G_L_0_G_L_2_G_M"><g id="_R_G_L_0_G_L_2_G" class="primary design"><path id="_R_G_L_0_G_L_2_G_D_0_P_0" stroke="#f56c6d" stroke-linecap="round" stroke-linejoin="round" fill="none" stroke-width="31.3" stroke-opacity="1" d=" M-23.83 -55.61 C-23.83,-55.61 23.83,0.88 23.83,0.88 C23.83,0.88 -23.83,55.61 -23.83,55.61 "/></g></g><g id="_R_G_L_0_G_L_1_G_M"><g id="_R_G_L_0_G_L_1_G" class="primary design"><path id="_R_G_L_0_G_L_1_G_D_0_P_0" stroke="#f56c6d" stroke-linecap="round" stroke-linejoin="round" fill="none" stroke-width="31.3" stroke-opacity="1" d=" M23.57 55 C23.57,55 -23.57,-0.87 -23.57,-0.87 C-23.57,-0.87 23.57,-55 23.57,-55 "/></g></g><g id="_R_G_L_0_G_L_0_G_M"><g id="_R_G_L_0_G_L_0_G" transform=" translate(249.998, 250.003)" class="primary design"><path id="_R_G_L_0_G_L_0_G_D_0_P_0" stroke="#f56c6d" stroke-linecap="round" stroke-linejoin="round" fill="none" stroke-width="31.3" stroke-opacity="1" d=" M-31.25 111.98 C-31.25,111.98 31.25,-111.98 31.25,-111.98 "/></g></g></g></g></g><g id="time_group"/></svg>