<svg xmlns="http://www.w3.org/2000/svg" xmlns:xlink="http://www.w3.org/1999/xlink" preserveAspectRatio="xMidYMid meet" width="50" height="50" viewBox="0 0 50 50" style="width:100%;height:100%"><defs><animateTransform repeatCount="indefinite" dur="1.1666667s" begin="0s" xlink:href="#_R_G_L_1_G" fill="freeze" attributeName="transform" from="0" to="-90" type="rotate" additive="sum" keyTimes="0;1" values="0;-90" keySplines="0.167 0.167 0.833 0.833" calcMode="spline"/><animateTransform repeatCount="indefinite" dur="1.1666667s" begin="0s" xlink:href="#_R_G_L_1_G" fill="freeze" attributeName="transform" from="-17 -25.022" to="-17 -25.022" type="translate" additive="sum" keyTimes="0;1" values="-17 -25.022;-17 -25.022" keySplines="0 0 1 1" calcMode="spline"/><animateTransform repeatCount="indefinite" dur="1.1666667s" begin="0s" xlink:href="#_R_G_L_0_G" fill="freeze" attributeName="transform" from="0" to="90" type="rotate" additive="sum" keyTimes="0;1" values="0;90" keySplines="0.167 0.167 0.833 0.833" calcMode="spline"/><animateTransform repeatCount="indefinite" dur="1.1666667s" begin="0s" xlink:href="#_R_G_L_0_G" fill="freeze" attributeName="transform" from="-29 -16.978" to="-29 -16.978" type="translate" additive="sum" keyTimes="0;1" values="-29 -16.978;-29 -16.978" keySplines="0 0 1 1" calcMode="spline"/><animate attributeType="XML" attributeName="opacity" dur="1s" from="0" to="1" xlink:href="#time_group"/></defs><g id="_R_G"><g id="_R_G_L_2_G"><path id="_R_G_L_2_G_D_0_P_0" stroke="#000000" stroke-linecap="round" stroke-linejoin="round" fill="none" stroke-width="2" stroke-opacity="1" d=" M10.21 45.88 C10.21,45.88 12,36 12,36 C10.25,36 9.41,35.01 9.13,34 C9.13,34 8.5,34 8.5,34 C6.02,34 4,32 4,29 C4,29 4,27.63 4,27.63 C2.59,27.01 2,25.63 2,24.25 C2,22.81 2.86,21.7 4,21 C2.87,20.42 2,18.86 2,17.5 C2,16.1 2.81,14.81 4,14.25 C3.99,14.14 4,14.11 4,14 C4,10.69 6.69,7.85 10,8 C10.25,8.01 10.58,8 10.88,8 C11.91,6.18 13.38,5 15.63,5 C17.38,5 18.38,5.63 18.88,6 C20,5 21.38,4 23.5,4 C26,4 27.63,4.63 29,6 C30.5,5.13 31.6,5 33.25,5 C35.95,5 38.52,6.65 39.5,9 C42.15,9 44.36,10.88 44.88,13.37 C46.63,13.75 48,14.63 48,16.88 C48,18.5 47.25,19.13 47,19.5 C47,19.5 48,20.25 48,22.25 C48,24.13 46.75,26 43.38,26 C43.38,26 43.08,26 43.08,26 C42.45,27.71 40.63,28 39.25,28 C39.25,28 38,28 38,28 C37.63,29 36.88,30 35.38,30 C34.13,30 33.5,29.5 33,29 C32.62,30.56 30.66,32 29,32 C29,32 28,32 28,32 C27.95,35.27 25.28,38 22,38 C17.85,38 15.3,41.57 14.25,45.75 "/><path id="_R_G_L_2_G_D_1_P_0" fill="#000000" fill-opacity="1" fill-rule="nonzero" d=" M9.54 44 C9.54,44 8.99,47 8.99,47 C8.99,47 11.03,47 11.03,47 C11.03,47 11.57,44 11.57,44 C11.57,44 9.54,44 9.54,44z "/><path id="_R_G_L_2_G_D_2_P_0" fill="#000000" fill-opacity="1" fill-rule="nonzero" d=" M14.99 47 C15.11,46.47 15.22,45.99 15.22,45.99 C15.35,45.46 15.56,44.76 15.87,44 C15.87,44 13.74,44 13.74,44 C13.57,44.49 13.41,44.99 13.28,45.53 C13.28,45.53 13.1,46.31 12.94,47 C12.94,47 14.99,47 14.99,47z "/></g><g id="_R_G_L_1_G" transform=" translate(17, 25.022)"><path id="_R_G_L_1_G_D_0_P_0" stroke="#000000" stroke-linecap="round" stroke-linejoin="round" fill="none" stroke-width="2" stroke-opacity="1" d=" M17 21.03 C14.79,21.03 13,22.82 13,25.02 C13,27.22 14.79,29.01 17,29.01 C19.21,29.01 21,27.22 21,25.02 C21,22.82 19.21,21.03 17,21.03z "/><path id="_R_G_L_1_G_D_1_P_0" stroke="#000000" stroke-linecap="round" stroke-linejoin="round" fill="none" stroke-width="2" stroke-opacity="1" d=" M17 18.04 C17,18.04 17,21.03 17,21.03 "/><path id="_R_G_L_1_G_D_2_P_0" stroke="#000000" stroke-linecap="round" stroke-linejoin="round" fill="none" stroke-width="2" stroke-opacity="1" d=" M17 29.01 C17,29.01 17,32 17,32 "/><path id="_R_G_L_1_G_D_3_P_0" stroke="#000000" stroke-linecap="round" stroke-linejoin="round" fill="none" stroke-width="2" stroke-opacity="1" d=" M24 25 C24,25 21,25 21,25 "/><path id="_R_G_L_1_G_D_4_P_0" stroke="#000000" stroke-linecap="round" stroke-linejoin="round" fill="none" stroke-width="2" stroke-opacity="1" d=" M13 25 C13,25 10,25 10,25 "/><path id="_R_G_L_1_G_D_5_P_0" stroke="#000000" stroke-linecap="round" stroke-linejoin="round" fill="none" stroke-width="2" stroke-opacity="1" d=" M21.95 20.09 C21.95,20.09 19.83,22.2 19.83,22.2 "/><path id="_R_G_L_1_G_D_6_P_0" stroke="#000000" stroke-linecap="round" stroke-linejoin="round" fill="none" stroke-width="2" stroke-opacity="1" d=" M14.17 27.84 C14.17,27.84 12.05,29.96 12.05,29.96 "/><path id="_R_G_L_1_G_D_7_P_0" stroke="#000000" stroke-linecap="round" stroke-linejoin="round" fill="none" stroke-width="2" stroke-opacity="1" d=" M21.95 29.96 C21.95,29.96 19.83,27.84 19.83,27.84 "/><path id="_R_G_L_1_G_D_8_P_0" stroke="#000000" stroke-linecap="round" stroke-linejoin="round" fill="none" stroke-width="2" stroke-opacity="1" d=" M14.17 22.2 C14.17,22.2 12.05,20.09 12.05,20.09 "/></g><g id="_R_G_L_0_G" transform=" translate(29, 16.978)"><path id="_R_G_L_0_G_D_0_P_0" stroke="#000000" stroke-linecap="round" stroke-linejoin="round" fill="none" stroke-width="2" stroke-opacity="1" d=" M29 12.99 C26.79,12.99 25,14.78 25,16.98 C25,19.18 26.79,20.97 29,20.97 C31.21,20.97 33,19.18 33,16.98 C33,14.78 31.21,12.99 29,12.99z "/><path id="_R_G_L_0_G_D_1_P_0" stroke="#000000" stroke-linecap="round" stroke-linejoin="round" fill="none" stroke-width="2" stroke-opacity="1" d=" M29 10 C29,10 29,12.99 29,12.99 "/><path id="_R_G_L_0_G_D_2_P_0" stroke="#000000" stroke-linecap="round" stroke-linejoin="round" fill="none" stroke-width="2" stroke-opacity="1" d=" M29 20.97 C29,20.97 29,23.96 29,23.96 "/><path id="_R_G_L_0_G_D_3_P_0" stroke="#000000" stroke-linecap="round" stroke-linejoin="round" fill="none" stroke-width="2" stroke-opacity="1" d=" M36 17 C36,17 33,17 33,17 "/><path id="_R_G_L_0_G_D_4_P_0" stroke="#000000" stroke-linecap="round" stroke-linejoin="round" fill="none" stroke-width="2" stroke-opacity="1" d=" M25 17 C25,17 22,17 22,17 "/><path id="_R_G_L_0_G_D_5_P_0" stroke="#000000" stroke-linecap="round" stroke-linejoin="round" fill="none" stroke-width="2" stroke-opacity="1" d=" M33.95 12.04 C33.95,12.04 31.83,14.16 31.83,14.16 "/><path id="_R_G_L_0_G_D_6_P_0" stroke="#000000" stroke-linecap="round" stroke-linejoin="round" fill="none" stroke-width="2" stroke-opacity="1" d=" M26.17 19.8 C26.17,19.8 24.05,21.91 24.05,21.91 "/><path id="_R_G_L_0_G_D_7_P_0" stroke="#000000" stroke-linecap="round" stroke-linejoin="round" fill="none" stroke-width="2" stroke-opacity="1" d=" M33.95 21.91 C33.95,21.91 31.83,19.8 31.83,19.8 "/><path id="_R_G_L_0_G_D_8_P_0" stroke="#000000" stroke-linecap="round" stroke-linejoin="round" fill="none" stroke-width="2" stroke-opacity="1" d=" M26.17 14.16 C26.17,14.16 24.05,12.05 24.05,12.05 "/></g></g><g id="time_group"/></svg>