<svg xmlns="http://www.w3.org/2000/svg" xmlns:xlink="http://www.w3.org/1999/xlink" preserveAspectRatio="xMidYMid meet" width="50" height="50" viewBox="0 0 50 50" style="width:100%;height:100%"><defs><animateTransform repeatCount="indefinite" dur="1.1666667s" begin="0s" xlink:href="#_R_G_L_0_G" fill="freeze" attributeName="transform" from="0" to="45" type="rotate" additive="sum" keyTimes="0;1" values="0;45" keySplines="0.167 0.167 0.833 0.833" calcMode="spline"/><animateTransform repeatCount="indefinite" dur="1.1666667s" begin="0s" xlink:href="#_R_G_L_0_G" fill="freeze" attributeName="transform" from="-25 -25" to="-25 -25" type="translate" additive="sum" keyTimes="0;1" values="-25 -25;-25 -25" keySplines="0 0 1 1" calcMode="spline"/><animate attributeType="XML" attributeName="opacity" dur="1s" from="0" to="1" xlink:href="#time_group"/></defs><g id="_R_G"><g id="_R_G_L_0_G" transform=" translate(25, 25)"><path id="_R_G_L_0_G_D_0_P_0" stroke="#f56c6d" stroke-linecap="round" stroke-linejoin="round" fill="none" stroke-width="2" stroke-opacity="1" d=" M47 27.71 C47,27.71 47,22.21 47,22.21 C47,22.21 40.45,21.14 40.45,21.14 C40.07,19.59 39.46,18.13 38.66,16.8 C38.66,16.8 42.47,11.36 42.47,11.36 C42.47,11.36 38.58,7.47 38.58,7.47 C38.58,7.47 33.21,11.33 33.21,11.33 C31.87,10.52 30.41,9.9 28.85,9.51 C28.85,9.51 27.71,3 27.71,3 C27.71,3 22.21,3 22.21,3 C22.21,3 21.15,9.49 21.15,9.49 C19.58,9.88 18.11,10.49 16.77,11.29 C16.77,11.29 11.42,7.47 11.42,7.47 C11.42,7.47 7.53,11.35 7.53,11.35 C7.53,11.35 11.29,16.74 11.29,16.74 C10.48,18.09 9.86,19.56 9.47,21.13 C9.47,21.13 3,22.21 3,22.21 C3,22.21 3,27.71 3,27.71 C3,27.71 9.46,28.85 9.46,28.85 C9.85,30.42 10.47,31.89 11.28,33.24 C11.28,33.24 7.47,38.58 7.47,38.58 C7.47,38.58 11.36,42.47 11.36,42.47 C11.36,42.47 16.75,38.69 16.75,38.69 C18.09,39.5 19.56,40.12 21.13,40.5 C21.13,40.5 22.21,47 22.21,47 C22.21,47 27.71,47 27.71,47 C27.71,47 28.86,40.49 28.86,40.49 C30.42,40.09 31.88,39.47 33.22,38.66 C33.22,38.66 38.64,42.47 38.64,42.47 C38.64,42.47 42.53,38.58 42.53,38.58 C42.53,38.58 38.66,33.2 38.66,33.2 C39.46,31.87 40.07,30.41 40.45,28.86 C40.45,28.86 47,27.71 47,27.71z "/><path id="_R_G_L_0_G_D_1_P_0" stroke="#f56c6d" stroke-linecap="round" stroke-linejoin="round" fill="none" stroke-width="2" stroke-opacity="1" d=" M25 18 C21.13,18 18,21.13 18,25 C18,28.87 21.13,32 25,32 C28.87,32 32,28.87 32,25 C32,21.13 28.87,18 25,18z "/></g></g><g id="time_group"/></svg>