<svg xmlns="http://www.w3.org/2000/svg" xmlns:xlink="http://www.w3.org/1999/xlink" preserveAspectRatio="xMidYMid meet" width="50" height="50" viewBox="0 0 50 50" style="width:100%;height:100%"><defs><animateMotion repeatCount="indefinite" dur="1.1666667s" begin="0s" xlink:href="#_R_G_L_0_G" fill="freeze" keyTimes="0;0.1071429;0.3214286;0.4285714;0.6071429;0.7142857;0.8928571;1" path="M25 25 C25,25 25,25 25,25 C25,25 15.06,22.75 15.06,22.75 C15.06,22.75 15.06,22.75 15.06,22.75 C15.06,22.75 17.02,29.95 17.02,29.95 C17.02,29.95 17.02,29.95 17.02,29.95 C17.02,29.95 25,25 25,25 C25,25 25,25 25,25 " keyPoints="0;0;0.38;0.38;0.65;0.65;1;1" keySplines="0.333 0 0.667 1;0.333 0 0.667 1;0.333 0.333 0.667 0.667;0.333 0 0.667 1;0.333 0.333 0.667 0.667;0.333 0 0.667 1;0 0 0 0" calcMode="spline"/><animateTransform repeatCount="indefinite" dur="1.1666667s" begin="0s" xlink:href="#_R_G_L_0_G" fill="freeze" attributeName="transform" from="1 1" to="1 1" type="scale" additive="sum" keyTimes="0;0.3214286;0.3571429;0.4285714;0.6071429;0.6428571;0.7142857;1" values="1 1;1 1;0.9 0.9;1 1;1 1;0.9 0.9;1 1;1 1" keySplines="0.333 0 0.667 1;0.333 0 0.667 1;0.333 0 0.667 1;0.333 0 0.667 1;0.333 0 0.667 1;0.333 0 0.667 1;0 0 0 0" calcMode="spline"/><animateTransform repeatCount="indefinite" dur="1.1666667s" begin="0s" xlink:href="#_R_G_L_0_G" fill="freeze" attributeName="transform" from="-25 -25" to="-25 -25" type="translate" additive="sum" keyTimes="0;1" values="-25 -25;-25 -25" keySplines="0 0 1 1" calcMode="spline"/><animate attributeType="XML" attributeName="opacity" dur="1s" from="0" to="1" xlink:href="#time_group"/></defs><g id="_R_G"><g id="_R_G_L_1_G"><path id="_R_G_L_1_G_D_0_P_0" stroke="#000000" stroke-linecap="round" stroke-linejoin="round" fill="none" stroke-width="2" stroke-opacity="1" d=" M48 43 C48,43 2,43 2,43 "/><path id="_R_G_L_1_G_D_1_P_0" stroke="#000000" stroke-linecap="round" stroke-linejoin="round" fill="none" stroke-width="2" stroke-opacity="1" d=" M44.63 43 C44.63,43 35.38,43 35.38,43 C35.38,43 33,32 33,32 C33,32 47,32 47,32 C47,32 44.63,43 44.63,43z "/><path id="_R_G_L_1_G_D_2_P_0" stroke="#000000" stroke-linecap="round" stroke-linejoin="round" fill="none" stroke-width="2" stroke-opacity="1" d=" M35.16 31.69 C33.25,29.5 33,26.63 33,25 C33,22.38 34,19 34,19 C34,19 37.49,21.56 39,26 "/><path id="_R_G_L_1_G_D_3_P_0" stroke="#000000" stroke-linecap="round" stroke-linejoin="round" fill="none" stroke-width="2" stroke-opacity="1" d=" M45 32 C46.11,30.03 47,28.5 47,24.5 C47,21 46,18 46,18 C46,18 41,21.5 39,26 C38.09,28.04 37.81,30.98 38,32 "/><path id="_R_G_L_1_G_D_4_P_0" stroke="#000000" stroke-linecap="round" stroke-linejoin="round" fill="none" stroke-width="2" stroke-opacity="1" d=" M43 20.5 C43,15.63 40,13 40,13 C40,13 37,15.5 37,20.5 C37,20.5 37,22.17 37,22.17 "/><path id="_R_G_L_1_G_D_5_P_0" fill="#000000" fill-opacity="1" fill-rule="nonzero" d=" M31.23 38 C31.23,38 14,38 14,38 C14,38 14,40 14,40 C14,40 31.66,40 31.66,40 C31.66,40 31.23,38 31.23,38z "/><path id="_R_G_L_1_G_D_6_P_0" fill="#000000" fill-opacity="1" fill-rule="nonzero" d=" M30.36 34 C30.36,34 4.4,34 4.4,34 C4.27,34 4,34 4,33.53 C4,33.53 4,8.47 4,8.47 C4,8 4.27,8 4.4,8 C4.4,8 41.6,8 41.6,8 C41.73,8 42,8 42,8.47 C42,8.47 42,10.77 42,10.77 C42.2,10.95 43.1,11.79 44,13.27 C44,13.27 44,8.47 44,8.47 C44,7.04 42.99,6 41.6,6 C41.6,6 4.4,6 4.4,6 C3.01,6 2,7.04 2,8.47 C2,8.47 2,33.53 2,33.53 C2,34.96 3.01,36 4.4,36 C4.4,36 30.79,36 30.79,36 C30.79,36 30.36,34 30.36,34z "/></g><g id="_R_G_L_0_G"><path id="_R_G_L_0_G_D_0_P_0" fill="#000000" fill-opacity="1" fill-rule="nonzero" d=" M21 16 C21,16 27,22 27,22 C27,22 24.18,22.25 24.18,22.25 C24.18,22.25 25.59,25.5 25.59,25.5 C25.59,25.5 24.41,26 24.41,26 C24.41,26 23.12,22.75 23.12,22.75 C23.12,22.75 21,24.88 21,24.88 C21,24.88 21,16 21,16z "/></g></g><g id="time_group"/></svg>