<svg xmlns="http://www.w3.org/2000/svg" xmlns:xlink="http://www.w3.org/1999/xlink" preserveAspectRatio="xMidYMid meet" width="50" height="50" viewBox="0 0 50 50" style="width:100%;height:100%"><defs><animateTransform repeatCount="indefinite" dur="1.1666667s" begin="0s" xlink:href="#_R_G_L_0_G" fill="freeze" attributeName="transform" from="0" to="0" type="rotate" additive="sum" keyTimes="0;0.1785714;0.75;1" values="0;90;0;0" keySplines="0.167 0.167 0.833 0.833;0.167 0.167 0.679 1;0 0 0 0" calcMode="spline"/><animateTransform repeatCount="indefinite" dur="1.1666667s" begin="0s" xlink:href="#_R_G_L_0_G" fill="freeze" attributeName="transform" from="1 1" to="1 1" type="scale" additive="sum" keyTimes="0;0.1071429;0.8214286;1" values="1 1;0.1 0.1;1 1;1 1" keySplines="0.167 0.167 0.833 0.833;0.167 0.167 0.667 1;0 0 0 0" calcMode="spline"/><animateTransform repeatCount="indefinite" dur="1.1666667s" begin="0s" xlink:href="#_R_G_L_0_G" fill="freeze" attributeName="transform" from="-25 -25" to="-25 -25" type="translate" additive="sum" keyTimes="0;1" values="-25 -25;-25 -25" keySplines="0 0 1 1" calcMode="spline"/><animate attributeType="XML" attributeName="opacity" dur="1s" from="0" to="1" xlink:href="#time_group"/></defs><g id="_R_G"><g id="_R_G_L_1_G"><path id="_R_G_L_1_G_D_0_P_0" stroke="#f56c6d" stroke-linecap="round" stroke-linejoin="round" fill="none" stroke-width="2" stroke-opacity="1" d=" M25 3 C12.85,3 3,12.85 3,25 C3,37.15 12.85,47 25,47 C37.15,47 47,37.15 47,25 C47,12.85 37.15,3 25,3z "/></g><g id="_R_G_L_0_G" transform=" translate(25, 25)"><path id="_R_G_L_0_G_D_0_P_0" fill="#f56c6d" fill-opacity="1" fill-rule="nonzero" d=" M25 11 C23.34,11 22,12.34 22,14 C22,15.66 23.34,17 25,17 C26.66,17 28,15.66 28,14 C28,12.34 26.66,11 25,11z "/><path id="_R_G_L_0_G_D_1_P_0" fill="#f56c6d" fill-opacity="1" fill-rule="nonzero" d=" M27 36 C27,36 27,21 27,21 C27,21 21,21 21,21 C21,21 21,23 21,23 C21,23 23,23 23,23 C23,23 23,36 23,36 C23,36 21,36 21,36 C21,36 21,38 21,38 C21,38 29,38 29,38 C29,38 29,36 29,36 C29,36 27,36 27,36z "/></g></g><g id="time_group"/></svg>