<svg xmlns="http://www.w3.org/2000/svg" xmlns:xlink="http://www.w3.org/1999/xlink" preserveAspectRatio="xMidYMid meet" width="50" height="50" viewBox="0 0 50 50" style="width:100%;height:100%"><defs><animateTransform repeatCount="indefinite" dur="1.1666667s" begin="0s" xlink:href="#_R_G_L_7_G_N_1_T_0" fill="freeze" attributeName="transform" from="1 1" to="1 1" type="scale" additive="sum" keyTimes="0;0.1071429;0.1785714;0.25;0.75;0.8214286;0.8928571;1" values="1 1;1 1;1.05 0.9500000000000001;1 1;1 1;1.05 0.9500000000000001;1 1;1 1" keySplines="0.333 0 0.667 1;0.333 0 0.667 1;0.333 0 0.667 1;0.333 0 0.667 1;0.333 0 0.667 1;0.333 0 0.667 1;0 0 0 0" calcMode="spline"/><animateTransform repeatCount="indefinite" dur="1.1666667s" begin="0s" xlink:href="#_R_G_L_6_G" fill="freeze" attributeName="transform" from="1 1" to="1 1" type="scale" additive="sum" keyTimes="0;0.0714286;0.1428571;0.2142857;0.7142857;0.7857143;0.8571429;1" values="1 1;1 1;0.8 0.8;1 1;1 1;0.8 0.8;1 1;1 1" keySplines="0.333 0 0.628 1;0.333 0 0.628 1;0.277 0 0.667 1;0.167 0 0.833 1;0.333 0 0.628 1;0.277 0 0.667 1;0 0 0 0" calcMode="spline"/><animateTransform repeatCount="indefinite" dur="1.1666667s" begin="0s" xlink:href="#_R_G_L_6_G" fill="freeze" attributeName="transform" from="-34 -26" to="-34 -26" type="translate" additive="sum" keyTimes="0;1" values="-34 -26;-34 -26" keySplines="0 0 1 1" calcMode="spline"/><animate repeatCount="indefinite" dur="1.1666667s" begin="0s" xlink:href="#_R_G_L_5_G_D_0_P_0" fill="freeze" attributeName="d" attributeType="XML" from="M23.96 2.92 C16.76,2.92 10.92,12.34 10.92,23.96 C10.92,35.58 16.76,45 23.96,45 " to="M23.96 2.92 C23.94,6.5 23.97,12.38 24.03,23.99 C24.09,35.72 24,38.88 23.96,45 " keyTimes="0;0.5;1" values="M23.96 2.92 C16.76,2.92 10.92,12.34 10.92,23.96 C10.92,35.58 16.76,45 23.96,45 ;M23.96 2.92 C23.94,6.5 23.97,12.38 24.03,23.99 C24.09,35.72 24,38.88 23.96,45 ;M23.96 2.92 C23.94,6.5 23.97,12.38 24.03,23.99 C24.09,35.72 24,38.88 23.96,45 " keySplines="0.333 0 0.667 1;0 0 0 0" calcMode="spline"/><animate repeatCount="indefinite" dur="1.1666667s" begin="0s" xlink:href="#_R_G_L_5_G_D_1_P_0" fill="freeze" attributeName="d" attributeType="XML" from="M23.96 45 C31.16,45 37,35.58 37,23.96 C37,12.34 31.16,2.92 23.96,2.92 " to="M23.96 45 C35.55,45 44.94,35.58 44.94,23.96 C44.94,12.34 35.55,2.92 23.96,2.92 " keyTimes="0;0.5;1" values="M23.96 45 C31.16,45 37,35.58 37,23.96 C37,12.34 31.16,2.92 23.96,2.92 ;M23.96 45 C35.55,45 44.94,35.58 44.94,23.96 C44.94,12.34 35.55,2.92 23.96,2.92 ;M23.96 45 C35.55,45 44.94,35.58 44.94,23.96 C44.94,12.34 35.55,2.92 23.96,2.92 " keySplines="0.333 0 0.667 1;0 0 0 0" calcMode="spline"/><animate repeatCount="indefinite" dur="1.1666667s" begin="0s" xlink:href="#_R_G_L_5_G_D_2_P_0" fill="freeze" attributeName="d" attributeType="XML" from="M23.96 45 C24.06,38.91 23.88,35.25 23.97,23.52 C24.06,11.81 23.94,9.19 23.96,2.92 " to="M23.96 45 C31.16,45 37,35.58 37,23.96 C37,12.34 31.16,2.92 23.96,2.92 " keyTimes="0;0.5;1" values="M23.96 45 C24.06,38.91 23.88,35.25 23.97,23.52 C24.06,11.81 23.94,9.19 23.96,2.92 ;M23.96 45 C31.16,45 37,35.58 37,23.96 C37,12.34 31.16,2.92 23.96,2.92 ;M23.96 45 C31.16,45 37,35.58 37,23.96 C37,12.34 31.16,2.92 23.96,2.92 " keySplines="0.333 0 0.667 1;0 0 0 0" calcMode="spline"/><animate repeatCount="indefinite" dur="1.1666667s" begin="0s" xlink:href="#_R_G_L_5_G_D_3_P_0" fill="freeze" attributeName="d" attributeType="XML" from="M23.96 2.92 C12.34,2.92 2.92,12.34 2.92,23.96 C2.92,35.58 12.34,45 23.96,45 " to="M23.96 2.92 C16.79,2.92 10.97,12.34 10.97,23.96 C10.97,35.58 16.79,45 23.96,45 " keyTimes="0;0.5;1" values="M23.96 2.92 C12.34,2.92 2.92,12.34 2.92,23.96 C2.92,35.58 12.34,45 23.96,45 ;M23.96 2.92 C16.79,2.92 10.97,12.34 10.97,23.96 C10.97,35.58 16.79,45 23.96,45 ;M23.96 2.92 C16.79,2.92 10.97,12.34 10.97,23.96 C10.97,35.58 16.79,45 23.96,45 " keySplines="0.333 0 0.667 1;0 0 0 0" calcMode="spline"/><animateTransform repeatCount="indefinite" dur="1.1666667s" begin="0s" xlink:href="#_R_G_L_5_G_N_1_T_0" fill="freeze" attributeName="transform" from="1 1" to="1 1" type="scale" additive="sum" keyTimes="0;0.1071429;0.1785714;0.25;0.75;0.8214286;0.8928571;1" values="1 1;1 1;1.05 0.9500000000000001;1 1;1 1;1.05 0.9500000000000001;1 1;1 1" keySplines="0.333 0 0.667 1;0.333 0 0.667 1;0.333 0 0.667 1;0.333 0 0.667 1;0.333 0 0.667 1;0.333 0 0.667 1;0 0 0 0" calcMode="spline"/><animate repeatCount="indefinite" dur="1.1666667s" begin="0s" xlink:href="#_R_G_L_5_G_N_1_T_0_M" fill="freeze" attributeName="opacity" from="1" to="0" keyTimes="0;0.5;0.5;1" values="1;1;0;0" keySplines="0 0 0 0;0 0 0 0;0 0 0 0" calcMode="spline"/><animateTransform repeatCount="indefinite" dur="1.1666667s" begin="0s" xlink:href="#_R_G_L_4_G" fill="freeze" attributeName="transform" from="1 1" to="1 1" type="scale" additive="sum" keyTimes="0;0.0714286;0.1428571;0.2142857;0.7142857;0.7857143;0.8571429;1" values="1 1;1 1;0.8 0.8;1 1;1 1;0.8 0.8;1 1;1 1" keySplines="0.333 0 0.628 1;0.333 0 0.628 1;0.277 0 0.667 1;0.167 0 0.833 1;0.333 0 0.628 1;0.277 0 0.667 1;0 0 0 0" calcMode="spline"/><animateTransform repeatCount="indefinite" dur="1.1666667s" begin="0s" xlink:href="#_R_G_L_4_G" fill="freeze" attributeName="transform" from="-34 -26" to="-34 -26" type="translate" additive="sum" keyTimes="0;1" values="-34 -26;-34 -26" keySplines="0 0 1 1" calcMode="spline"/><animate repeatCount="indefinite" dur="1.1666667s" begin="0s" xlink:href="#_R_G_L_3_G_D_0_P_0" fill="freeze" attributeName="d" attributeType="XML" from="M23.96 2.92 C16.76,2.92 10.92,12.34 10.92,23.96 C10.92,35.58 16.76,45 23.96,45 " to="M23.96 2.92 C23.94,6.5 23.97,12.38 24.03,23.99 C24.09,35.72 24,38.88 23.96,45 " keyTimes="0;0.5;1" values="M23.96 2.92 C16.76,2.92 10.92,12.34 10.92,23.96 C10.92,35.58 16.76,45 23.96,45 ;M23.96 2.92 C16.76,2.92 10.92,12.34 10.92,23.96 C10.92,35.58 16.76,45 23.96,45 ;M23.96 2.92 C23.94,6.5 23.97,12.38 24.03,23.99 C24.09,35.72 24,38.88 23.96,45 " keySplines="0.333 0 0.667 1;0.333 0 0.667 1" calcMode="spline"/><animate repeatCount="indefinite" dur="1.1666667s" begin="0s" xlink:href="#_R_G_L_3_G_D_1_P_0" fill="freeze" attributeName="d" attributeType="XML" from="M23.96 45 C31.16,45 37,35.58 37,23.96 C37,12.34 31.16,2.92 23.96,2.92 " to="M23.96 45 C35.55,45 44.94,35.58 44.94,23.96 C44.94,12.34 35.55,2.92 23.96,2.92 " keyTimes="0;0.5;1" values="M23.96 45 C31.16,45 37,35.58 37,23.96 C37,12.34 31.16,2.92 23.96,2.92 ;M23.96 45 C31.16,45 37,35.58 37,23.96 C37,12.34 31.16,2.92 23.96,2.92 ;M23.96 45 C35.55,45 44.94,35.58 44.94,23.96 C44.94,12.34 35.55,2.92 23.96,2.92 " keySplines="0.333 0 0.667 1;0.333 0 0.667 1" calcMode="spline"/><animate repeatCount="indefinite" dur="1.1666667s" begin="0s" xlink:href="#_R_G_L_3_G_D_2_P_0" fill="freeze" attributeName="d" attributeType="XML" from="M23.96 45 C24.06,38.91 23.88,35.25 23.97,23.52 C24.06,11.81 23.94,9.19 23.96,2.92 " to="M23.96 45 C31.16,45 37,35.58 37,23.96 C37,12.34 31.16,2.92 23.96,2.92 " keyTimes="0;0.5;1" values="M23.96 45 C24.06,38.91 23.88,35.25 23.97,23.52 C24.06,11.81 23.94,9.19 23.96,2.92 ;M23.96 45 C24.06,38.91 23.88,35.25 23.97,23.52 C24.06,11.81 23.94,9.19 23.96,2.92 ;M23.96 45 C31.16,45 37,35.58 37,23.96 C37,12.34 31.16,2.92 23.96,2.92 " keySplines="0.333 0 0.667 1;0.333 0 0.667 1" calcMode="spline"/><animate repeatCount="indefinite" dur="1.1666667s" begin="0s" xlink:href="#_R_G_L_3_G_D_3_P_0" fill="freeze" attributeName="d" attributeType="XML" from="M23.96 2.92 C12.34,2.92 2.92,12.34 2.92,23.96 C2.92,35.58 12.34,45 23.96,45 " to="M23.96 2.92 C16.79,2.92 10.97,12.34 10.97,23.96 C10.97,35.58 16.79,45 23.96,45 " keyTimes="0;0.5;1" values="M23.96 2.92 C12.34,2.92 2.92,12.34 2.92,23.96 C2.92,35.58 12.34,45 23.96,45 ;M23.96 2.92 C12.34,2.92 2.92,12.34 2.92,23.96 C2.92,35.58 12.34,45 23.96,45 ;M23.96 2.92 C16.79,2.92 10.97,12.34 10.97,23.96 C10.97,35.58 16.79,45 23.96,45 " keySplines="0.333 0 0.667 1;0.333 0 0.667 1" calcMode="spline"/><animateTransform repeatCount="indefinite" dur="1.1666667s" begin="0s" xlink:href="#_R_G_L_3_G_N_1_T_0" fill="freeze" attributeName="transform" from="1 1" to="1 1" type="scale" additive="sum" keyTimes="0;0.1071429;0.1785714;0.25;0.75;0.8214286;0.8928571;1" values="1 1;1 1;1.05 0.9500000000000001;1 1;1 1;1.05 0.9500000000000001;1 1;1 1" keySplines="0.333 0 0.667 1;0.333 0 0.667 1;0.333 0 0.667 1;0.333 0 0.667 1;0.333 0 0.667 1;0.333 0 0.667 1;0 0 0 0" calcMode="spline"/><animate repeatCount="indefinite" dur="1.1666667s" begin="0s" xlink:href="#_R_G_L_3_G_N_1_T_0_M" fill="freeze" attributeName="opacity" from="0" to="1" keyTimes="0;0.5;0.5000036;1" values="0;0;1;1" keySplines="0 0 0 0;0 0 0 0;0 0 0 0" calcMode="spline"/><animateTransform repeatCount="indefinite" dur="1.1666667s" begin="0s" xlink:href="#_R_G_L_2_G" fill="freeze" attributeName="transform" from="1 1" to="1 1" type="scale" additive="sum" keyTimes="0;0.0714286;0.1428571;0.2142857;0.7142857;0.7857143;0.8571429;1" values="1 1;1 1;0.8 0.8;1 1;1 1;0.8 0.8;1 1;1 1" keySplines="0.333 0 0.628 1;0.333 0 0.628 1;0.277 0 0.667 1;0.167 0 0.833 1;0.333 0 0.628 1;0.277 0 0.667 1;0 0 0 0" calcMode="spline"/><animateTransform repeatCount="indefinite" dur="1.1666667s" begin="0s" xlink:href="#_R_G_L_2_G" fill="freeze" attributeName="transform" from="-34 -26" to="-34 -26" type="translate" additive="sum" keyTimes="0;1" values="-34 -26;-34 -26" keySplines="0 0 1 1" calcMode="spline"/><animateTransform repeatCount="indefinite" dur="1.1666667s" begin="0s" xlink:href="#_R_G_L_1_G" fill="freeze" attributeName="transform" from="1 1" to="1 1" type="scale" additive="sum" keyTimes="0;0.0714286;0.1428571;0.2142857;0.7142857;0.7857143;0.8571429;1" values="1 1;1 1;0.8 0.8;1 1;1 1;0.8 0.8;1 1;1 1" keySplines="0.333 0 0.628 1;0.333 0 0.628 1;0.277 0 0.667 1;0.167 0 0.833 1;0.333 0 0.628 1;0.277 0 0.667 1;0 0 0 0" calcMode="spline"/><animateTransform repeatCount="indefinite" dur="1.1666667s" begin="0s" xlink:href="#_R_G_L_1_G" fill="freeze" attributeName="transform" from="-34 -26" to="-34 -26" type="translate" additive="sum" keyTimes="0;1" values="-34 -26;-34 -26" keySplines="0 0 1 1" calcMode="spline"/><animateTransform repeatCount="indefinite" dur="1.1666667s" begin="0s" xlink:href="#_R_G_L_0_G" fill="freeze" attributeName="transform" from="1 1" to="1 1" type="scale" additive="sum" keyTimes="0;0.1071429;0.1785714;0.25;0.75;0.8214286;0.8928571;1" values="1 1;1 1;1.05 0.9500000000000001;1 1;1 1;1.05 0.9500000000000001;1 1;1 1" keySplines="0.333 0 0.667 1;0.333 0 0.667 1;0.333 0 0.667 1;0.333 0 0.667 1;0.333 0 0.667 1;0.333 0 0.667 1;0 0 0 0" calcMode="spline"/><animate attributeType="XML" attributeName="opacity" dur="1s" from="0" to="1" xlink:href="#time_group"/></defs><g id="_R_G"><g id="_R_G_L_7_G_N_1_T_0" transform=" translate(25, 25)"><g id="_R_G_L_7_G" transform=" translate(0, 0) translate(-25, -25)"><path id="_R_G_L_7_G_D_0_P_0" stroke="#000000" stroke-linecap="round" stroke-linejoin="round" fill="none" stroke-width="2" stroke-opacity="1" d=" M44.55 24 C44.55,24 3,24 3,24 "/><path id="_R_G_L_7_G_D_1_P_0" stroke="#000000" stroke-linecap="round" stroke-linejoin="round" fill="none" stroke-width="2" stroke-opacity="1" d=" M23.96 2.92 C12.34,2.92 2.92,12.34 2.92,23.96 C2.92,35.58 12.34,45 23.96,45 C35.58,45 45,35.58 45,23.96 C45,12.34 35.58,2.92 23.96,2.92z "/><path id="_R_G_L_7_G_D_2_P_0" stroke="#000000" stroke-linecap="round" stroke-linejoin="round" fill="none" stroke-width="2" stroke-opacity="1" d=" M42 13 C42,13 6,13 6,13 "/><path id="_R_G_L_7_G_D_3_P_0" stroke="#000000" stroke-linecap="round" stroke-linejoin="round" fill="none" stroke-width="2" stroke-opacity="1" d=" M42.43 35 C42.43,35 6,35 6,35 "/></g></g><g id="_R_G_L_6_G" transform=" translate(34, 26)"><path id="_R_G_L_6_G_D_0_P_0" fill="#ffffff" fill-opacity="1" fill-rule="nonzero" d=" M56.27 41.4 C56.27,41.4 31.68,18.35 31.68,18.35 C31.39,18.07 30.97,18 30.6,18.16 C30.24,18.32 30,18.68 30,19.08 C30,19.08 30,52.49 30,52.49 C30,52.9 30.24,53.26 30.62,53.42 C30.74,53.47 30.87,53.49 31,53.49 C31.26,53.49 31.52,53.39 31.71,53.2 C31.71,53.2 36.79,48.12 36.79,48.12 C36.79,48.12 38.75,52.4 38.75,52.4 C38.86,52.64 39.07,52.83 39.32,52.92 C39.56,53.01 39.84,53 40.08,52.89 C40.08,52.89 49.4,48.61 49.4,48.61 C49.9,48.38 50.12,47.79 49.89,47.29 C49.89,47.29 47.98,43.13 47.98,43.13 C47.98,43.13 55.59,43.13 55.59,43.13 C56,43.13 56.37,42.88 56.52,42.49 C56.67,42.11 56.57,41.68 56.27,41.4z "/></g><g id="_R_G_L_5_G_N_1_T_0_M"><g id="_R_G_L_5_G_N_1_T_0" transform=" translate(25, 25)"><g id="_R_G_L_5_G" transform=" translate(0, 0) translate(-25, -25)"><path id="_R_G_L_5_G_D_0_P_0" stroke="#000000" stroke-linecap="round" stroke-linejoin="round" fill="none" stroke-width="2" stroke-opacity="1" d=" M23.96 2.92 C16.76,2.92 10.92,12.34 10.92,23.96 C10.92,35.58 16.76,45 23.96,45 "/><path id="_R_G_L_5_G_D_1_P_0" stroke="#000000" stroke-linecap="round" stroke-linejoin="round" fill="none" stroke-width="2" stroke-opacity="1" d=" M23.96 45 C31.16,45 37,35.58 37,23.96 C37,12.34 31.16,2.92 23.96,2.92 "/><path id="_R_G_L_5_G_D_2_P_0" stroke="#000000" stroke-linecap="round" stroke-linejoin="round" fill="none" stroke-width="2" stroke-opacity="1" d=" M23.96 45 C24.06,38.91 23.88,35.25 23.97,23.52 C24.06,11.81 23.94,9.19 23.96,2.92 "/><path id="_R_G_L_5_G_D_3_P_0" stroke="#000000" stroke-linecap="round" stroke-linejoin="round" fill="none" stroke-width="2" stroke-opacity="1" d=" M23.96 2.92 C12.34,2.92 2.92,12.34 2.92,23.96 C2.92,35.58 12.34,45 23.96,45 "/></g></g></g><g id="_R_G_L_4_G" transform=" translate(34, 26)"><path id="_R_G_L_4_G_D_0_P_0" fill="#ffffff" fill-opacity="1" fill-rule="nonzero" d=" M56.27 41.4 C56.27,41.4 31.68,18.35 31.68,18.35 C31.39,18.07 30.97,18 30.6,18.16 C30.24,18.32 30,18.68 30,19.08 C30,19.08 30,52.49 30,52.49 C30,52.9 30.24,53.26 30.62,53.42 C30.74,53.47 30.87,53.49 31,53.49 C31.26,53.49 31.52,53.39 31.71,53.2 C31.71,53.2 36.79,48.12 36.79,48.12 C36.79,48.12 38.75,52.4 38.75,52.4 C38.86,52.64 39.07,52.83 39.32,52.92 C39.56,53.01 39.84,53 40.08,52.89 C40.08,52.89 49.4,48.61 49.4,48.61 C49.9,48.38 50.12,47.79 49.89,47.29 C49.89,47.29 47.98,43.13 47.98,43.13 C47.98,43.13 55.59,43.13 55.59,43.13 C56,43.13 56.37,42.88 56.52,42.49 C56.67,42.11 56.57,41.68 56.27,41.4z "/></g><g id="_R_G_L_3_G_N_1_T_0_M"><g id="_R_G_L_3_G_N_1_T_0" transform=" translate(25, 25)"><g id="_R_G_L_3_G" transform=" translate(0, 0) translate(-25, -25)"><path id="_R_G_L_3_G_D_0_P_0" stroke="#000000" stroke-linecap="round" stroke-linejoin="round" fill="none" stroke-width="2" stroke-opacity="1" d=" M23.96 2.92 C16.76,2.92 10.92,12.34 10.92,23.96 C10.92,35.58 16.76,45 23.96,45 "/><path id="_R_G_L_3_G_D_1_P_0" stroke="#000000" stroke-linecap="round" stroke-linejoin="round" fill="none" stroke-width="2" stroke-opacity="1" d=" M23.96 45 C31.16,45 37,35.58 37,23.96 C37,12.34 31.16,2.92 23.96,2.92 "/><path id="_R_G_L_3_G_D_2_P_0" stroke="#000000" stroke-linecap="round" stroke-linejoin="round" fill="none" stroke-width="2" stroke-opacity="1" d=" M23.96 45 C24.06,38.91 23.88,35.25 23.97,23.52 C24.06,11.81 23.94,9.19 23.96,2.92 "/><path id="_R_G_L_3_G_D_3_P_0" stroke="#000000" stroke-linecap="round" stroke-linejoin="round" fill="none" stroke-width="2" stroke-opacity="1" d=" M23.96 2.92 C12.34,2.92 2.92,12.34 2.92,23.96 C2.92,35.58 12.34,45 23.96,45 "/></g></g></g><g id="_R_G_L_2_G" transform=" translate(34, 26)"><path id="_R_G_L_2_G_D_0_P_0" fill="#ffffff" fill-opacity="1" fill-rule="nonzero" d=" M56.27 41.4 C56.27,41.4 31.68,18.35 31.68,18.35 C31.39,18.07 30.97,18 30.6,18.16 C30.24,18.32 30,18.68 30,19.08 C30,19.08 30,52.49 30,52.49 C30,52.9 30.24,53.26 30.62,53.42 C30.74,53.47 30.87,53.49 31,53.49 C31.26,53.49 31.52,53.39 31.71,53.2 C31.71,53.2 36.79,48.12 36.79,48.12 C36.79,48.12 38.75,52.4 38.75,52.4 C38.86,52.64 39.07,52.83 39.32,52.92 C39.56,53.01 39.84,53 40.08,52.89 C40.08,52.89 49.4,48.61 49.4,48.61 C49.9,48.38 50.12,47.79 49.89,47.29 C49.89,47.29 47.98,43.13 47.98,43.13 C47.98,43.13 55.59,43.13 55.59,43.13 C56,43.13 56.37,42.88 56.52,42.49 C56.67,42.11 56.57,41.68 56.27,41.4z "/></g><g id="_R_G_L_1_G" transform=" translate(34, 26)"><path id="_R_G_L_1_G_D_0_P_0" stroke="#000000" stroke-linecap="round" stroke-linejoin="round" fill="none" stroke-width="2" stroke-opacity="1" d=" M41.88 39.13 C41.88,39.13 48,39.13 48,39.13 C48,39.13 34,26 34,26 C34,26 34,45.25 34,45.25 C34,45.25 38.03,41.22 38.03,41.22 C38.03,41.22 41.14,48 41.14,48 C41.14,48 45,46.23 45,46.23 C45,46.23 41.77,39.18 41.77,39.18 C41.77,39.18 41.88,39.13 41.88,39.13z "/></g><g id="_R_G_L_0_G" transform=" translate(25, 25)"/></g><g id="time_group"/></svg>