<svg xmlns="http://www.w3.org/2000/svg" xmlns:xlink="http://www.w3.org/1999/xlink" preserveAspectRatio="xMidYMid meet" width="50" height="50" viewBox="0 0 50 50" style="width:100%;height:100%"><defs><animate repeatCount="indefinite" dur="1.1666667s" begin="0s" xlink:href="#_R_G_L_5_G_M" fill="freeze" attributeName="opacity" from="1" to="0" keyTimes="0;0.3571429;0.3571429;1" values="1;1;0;0" keySplines="0 0 0 0;0 0 0 0;0 0 0 0" calcMode="spline"/><animateTransform repeatCount="indefinite" dur="1.1666667s" begin="0s" xlink:href="#_R_G_L_4_G" fill="freeze" attributeName="transform" from="1 1" to="0.01 0.011890000000000001" type="scale" additive="sum" keyTimes="0;0.0714286;0.25;0.3571429;1" values="1 1;1 1;0.9 1.07;0.01 0.011890000000000001;0.01 0.011890000000000001" keySplines="0.333 0 0.667 1;0.333 0 0.667 1;0.333 0 0.667 1;0 0 0 0" calcMode="spline"/><animateTransform repeatCount="indefinite" dur="1.1666667s" begin="0s" xlink:href="#_R_G_L_4_G" fill="freeze" attributeName="transform" from="-28 -31" to="-28 -31" type="translate" additive="sum" keyTimes="0;1" values="-28 -31;-28 -31" keySplines="0 0 1 1" calcMode="spline"/><animate repeatCount="indefinite" dur="1.1666667s" begin="0s" xlink:href="#_R_G_L_4_G_M" fill="freeze" attributeName="opacity" from="1" to="0" keyTimes="0;0.3571429;0.3571429;1" values="1;1;0;0" keySplines="0 0 0 0;0 0 0 0;0 0 0 0" calcMode="spline"/><animate repeatCount="indefinite" dur="1.1666667s" begin="0s" xlink:href="#_R_G_L_3_G_D_0_P_0" fill="freeze" attributeName="d" attributeType="XML" from="M49 7 C49,7 38,13 38,13 C38,13 25,7 25,7 C25,7 13,13 13,13 C13,13 1,7 1,7 C1,7 1,43 1,43 C1,43 13,49 13,49 C13,49 25,43 25,43 C25,43 38,49 38,49 C38,49 49,43 49,43 C49,43 49,7 49,7z " to="M49 7 C49,7 38,13 38,13 C38,13 25,7 25,7 C25,7 13,13 13,13 C13,13 1,7 1,7 C1,7 1,43 1,43 C1,43 13,49 13,49 C13,49 25,43 25,43 C25,43 38,49 38,49 C38,49 49,43 49,43 C49,43 49,7 49,7z " keyTimes="0;0.3571429;0.4642857;0.6071429;0.75;0.8571429;1" values="M49 7 C49,7 38,13 38,13 C38,13 25,7 25,7 C25,7 13,13 13,13 C13,13 1,7 1,7 C1,7 1,43 1,43 C1,43 13,49 13,49 C13,49 25,43 25,43 C25,43 38,49 38,49 C38,49 49,43 49,43 C49,43 49,7 49,7z ;M49 7 C49,7 38,13 38,13 C38,13 25,7 25,7 C25,7 13,13 13,13 C13,13 1,7 1,7 C1,7 1,43 1,43 C1,43 13,49 13,49 C13,49 25,43 25,43 C25,43 38,49 38,49 C38,49 49,43 49,43 C49,43 49,7 49,7z ;M51.19 7 C51.19,7 39.17,13 39.17,13 C39.17,13 24.97,7 24.97,7 C24.97,7 11.86,13 11.86,13 C11.86,13 -1.26,7 -1.26,7 C-1.26,7 -1.26,43 -1.26,43 C-1.26,43 11.86,49 11.86,49 C11.86,49 24.97,43 24.97,43 C24.97,43 39.17,49 39.17,49 C39.17,49 51.19,43 51.19,43 C51.19,43 51.19,7 51.19,7z ;M46.06 7 C46.06,7 36.39,15 36.39,15 C36.39,15 25.38,6.25 25.38,6.25 C25.38,6.25 14.42,15 14.42,15 C14.42,15 3.87,7 3.87,7 C3.87,7 3.87,43 3.87,43 C3.87,43 14.42,49 14.42,49 C14.42,49 24.83,41.78 24.83,41.78 C24.83,41.78 36.39,49 36.39,49 C36.39,49 46.06,43 46.06,43 C46.06,43 46.06,7 46.06,7z ;M51.19 7 C51.19,7 39.17,13 39.17,13 C39.17,13 24.97,7 24.97,7 C24.97,7 11.86,13 11.86,13 C11.86,13 -1.26,7 -1.26,7 C-1.26,7 -1.26,43 -1.26,43 C-1.26,43 11.86,49 11.86,49 C11.86,49 24.97,43 24.97,43 C24.97,43 39.17,49 39.17,49 C39.17,49 51.19,43 51.19,43 C51.19,43 51.19,7 51.19,7z ;M49 7 C49,7 38,13 38,13 C38,13 25,7 25,7 C25,7 13,13 13,13 C13,13 1,7 1,7 C1,7 1,43 1,43 C1,43 13,49 13,49 C13,49 25,43 25,43 C25,43 38,49 38,49 C38,49 49,43 49,43 C49,43 49,7 49,7z ;M49 7 C49,7 38,13 38,13 C38,13 25,7 25,7 C25,7 13,13 13,13 C13,13 1,7 1,7 C1,7 1,43 1,43 C1,43 13,49 13,49 C13,49 25,43 25,43 C25,43 38,49 38,49 C38,49 49,43 49,43 C49,43 49,7 49,7z " keySplines="0.333 0 0.667 1;0.333 0 0.667 1;0.333 0 0.667 1;0.333 0 0.667 1;0.333 0 0.667 1;0 0 0 0" calcMode="spline"/><animate repeatCount="indefinite" dur="1.1666667s" begin="0s" xlink:href="#_R_G_L_3_G_M" fill="freeze" attributeName="opacity" from="0" to="1" keyTimes="0;0.3571429;0.3571464;1" values="0;0;1;1" keySplines="0 0 0 0;0 0 0 0;0 0 0 0" calcMode="spline"/><animateTransform repeatCount="indefinite" dur="1.1666667s" begin="0s" xlink:href="#_R_G_L_2_G" fill="freeze" attributeName="transform" from="0.01 0.011890000000000001" to="1 1" type="scale" additive="sum" keyTimes="0;0.6071429;0.8214286;0.9642857;1" values="0.01 0.011890000000000001;0.01 0.011890000000000001;0.9 1.07;1 1;1 1" keySplines="0.333 0 0.667 1;0.333 0 0.667 1;0.333 0 0.667 1;0 0 0 0" calcMode="spline"/><animateTransform repeatCount="indefinite" dur="1.1666667s" begin="0s" xlink:href="#_R_G_L_2_G" fill="freeze" attributeName="transform" from="-28 -31" to="-28 -31" type="translate" additive="sum" keyTimes="0;1" values="-28 -31;-28 -31" keySplines="0 0 1 1" calcMode="spline"/><animate repeatCount="indefinite" dur="1.1666667s" begin="0s" xlink:href="#_R_G_L_2_G_M" fill="freeze" attributeName="opacity" from="0" to="1" keyTimes="0;0.6071429;0.6071464;1" values="0;0;1;1" keySplines="0 0 0 0;0 0 0 0;0 0 0 0" calcMode="spline"/><animateTransform repeatCount="indefinite" dur="1.1666667s" begin="0s" xlink:href="#_R_G_L_1_G" fill="freeze" attributeName="transform" from="1 1" to="0.01 0.011890000000000001" type="scale" additive="sum" keyTimes="0;0.0714286;0.25;0.3571429;1" values="1 1;1 1;0.9 1.07;0.01 0.011890000000000001;0.01 0.011890000000000001" keySplines="0.333 0 0.667 1;0.333 0 0.667 1;0.333 0 0.667 1;0 0 0 0" calcMode="spline"/><animateTransform repeatCount="indefinite" dur="1.1666667s" begin="0s" xlink:href="#_R_G_L_1_G" fill="freeze" attributeName="transform" from="-28 -31" to="-28 -31" type="translate" additive="sum" keyTimes="0;1" values="-28 -31;-28 -31" keySplines="0 0 1 1" calcMode="spline"/><animate repeatCount="indefinite" dur="1.1666667s" begin="0s" xlink:href="#_R_G_L_1_G_M" fill="freeze" attributeName="opacity" from="1" to="0" keyTimes="0;0.3571429;0.3571429;1" values="1;1;0;0" keySplines="0 0 0 0;0 0 0 0;0 0 0 0" calcMode="spline"/><animateTransform repeatCount="indefinite" dur="1.1666667s" begin="0s" xlink:href="#_R_G_L_0_G" fill="freeze" attributeName="transform" from="0.01 0.011890000000000001" to="1 1" type="scale" additive="sum" keyTimes="0;0.6071429;0.8214286;0.9285714;1" values="0.01 0.011890000000000001;0.01 0.011890000000000001;0.9 1.07;1 1;1 1" keySplines="0.333 0 0.667 1;0.333 0 0.667 1;0.333 0 0.667 1;0 0 0 0" calcMode="spline"/><animateTransform repeatCount="indefinite" dur="1.1666667s" begin="0s" xlink:href="#_R_G_L_0_G" fill="freeze" attributeName="transform" from="-28 -31" to="-28 -31" type="translate" additive="sum" keyTimes="0;1" values="-28 -31;-28 -31" keySplines="0 0 1 1" calcMode="spline"/><animate repeatCount="indefinite" dur="1.1666667s" begin="0s" xlink:href="#_R_G_L_0_G_M" fill="freeze" attributeName="opacity" from="0" to="1" keyTimes="0;0.6071429;0.6071464;1" values="0;0;1;1" keySplines="0 0 0 0;0 0 0 0;0 0 0 0" calcMode="spline"/><animate attributeType="XML" attributeName="opacity" dur="1s" from="0" to="1" xlink:href="#time_group"/></defs><g id="_R_G"><g id="_R_G_L_5_G_M"><g id="_R_G_L_5_G" transform=" scale(0.9140600000000001, 1)"><path id="_R_G_L_5_G_D_0_P_0" stroke="#000000" stroke-linecap="round" stroke-linejoin="round" fill="none" stroke-width="2" stroke-opacity="1" d=" M49 7 C49,7 38,13 38,13 C38,13 25,7 25,7 C25,7 13,13 13,13 C13,13 1,7 1,7 C1,7 1,43 1,43 C1,43 13,49 13,49 C13,49 25,43 25,43 C25,43 38,49 38,49 C38,49 49,43 49,43 C49,43 49,7 49,7z "/></g></g><g id="_R_G_L_4_G_M"><g id="_R_G_L_4_G" transform=" translate(28, 31)"><path id="_R_G_L_4_G_D_0_P_0" fill="#ff0000" fill-opacity="1" fill-rule="nonzero" d=" M37 12 C37,20.16 28,31 28,31 C28,31 19,20.36 19,12 C19,7.03 23.03,3 28,3 C32.97,3 37,7.03 37,12z "/></g></g><g id="_R_G_L_3_G_M"><g id="_R_G_L_3_G" transform=" scale(0.9140600000000001, 1)"><path id="_R_G_L_3_G_D_0_P_0" stroke="#000000" stroke-linecap="round" stroke-linejoin="round" fill="none" stroke-width="2" stroke-opacity="1" d=" M49 7 C49,7 38,13 38,13 C38,13 25,7 25,7 C25,7 13,13 13,13 C13,13 1,7 1,7 C1,7 1,43 1,43 C1,43 13,49 13,49 C13,49 25,43 25,43 C25,43 38,49 38,49 C38,49 49,43 49,43 C49,43 49,7 49,7z "/></g></g><g id="_R_G_L_2_G_M"><g id="_R_G_L_2_G" transform=" translate(28, 31)"><path id="_R_G_L_2_G_D_0_P_0" fill="#ff0000" fill-opacity="1" fill-rule="nonzero" d=" M37 12 C37,20.16 28,31 28,31 C28,31 19,20.36 19,12 C19,7.03 23.03,3 28,3 C32.97,3 37,7.03 37,12z "/></g></g><g id="_R_G_L_1_G_M"><g id="_R_G_L_1_G" transform=" translate(28, 31)"><path id="_R_G_L_1_G_D_0_P_0" stroke="#000000" stroke-linecap="round" stroke-linejoin="round" fill="none" stroke-width="2" stroke-opacity="1" d=" M37 12 C37,20.16 28,31 28,31 C28,31 19,20.36 19,12 C19,7.03 23.03,3 28,3 C32.97,3 37,7.03 37,12z "/><path id="_R_G_L_1_G_D_1_P_0" stroke="#000000" stroke-linecap="round" stroke-linejoin="round" fill="none" stroke-width="2" stroke-opacity="1" d=" M28 9 C25.79,9 24,10.79 24,13 C24,15.21 25.79,17 28,17 C30.21,17 32,15.21 32,13 C32,10.79 30.21,9 28,9z "/></g></g><g id="_R_G_L_0_G_M"><g id="_R_G_L_0_G" transform=" translate(28, 31)"><path id="_R_G_L_0_G_D_0_P_0" stroke="#000000" stroke-linecap="round" stroke-linejoin="round" fill="none" stroke-width="2" stroke-opacity="1" d=" M37 12 C37,20.16 28,31 28,31 C28,31 19,20.36 19,12 C19,7.03 23.03,3 28,3 C32.97,3 37,7.03 37,12z "/><path id="_R_G_L_0_G_D_1_P_0" stroke="#000000" stroke-linecap="round" stroke-linejoin="round" fill="none" stroke-width="2" stroke-opacity="1" d=" M28 9 C25.79,9 24,10.79 24,13 C24,15.21 25.79,17 28,17 C30.21,17 32,15.21 32,13 C32,10.79 30.21,9 28,9z "/></g></g></g><g id="time_group"/></svg>