<svg xmlns="http://www.w3.org/2000/svg" xmlns:xlink="http://www.w3.org/1999/xlink" preserveAspectRatio="xMidYMid meet" width="50" height="50" viewBox="0 0 50 50" style="width:100%;height:100%"><defs><animateTransform repeatCount="indefinite" dur="1.1666667s" begin="0s" xlink:href="#_R_G_L_2_G" fill="freeze" attributeName="transform" from="0" to="0" type="rotate" additive="sum" keyTimes="0;0.1071429;0.1785714;0.25;0.3214286;0.3928571;0.6071429;0.6785714;0.75;0.8214286;0.8928571;1" values="0;0;-5;5;-5;0;0;-5;5;-5;0;0" keySplines="0.333 0 0.667 1;0.333 0 0.667 1;0.333 0 0.667 1;0.333 0 0.667 1;0.333 0 0.667 1;0.167 0.167 0.833 0.833;0.333 0 0.667 1;0.333 0 0.667 1;0.333 0 0.667 1;0.333 0 0.667 1;0 0 0 0" calcMode="spline"/><animateTransform repeatCount="indefinite" dur="1.1666667s" begin="0s" xlink:href="#_R_G_L_2_G" fill="freeze" attributeName="transform" from="-25 -32.125" to="-25 -32.125" type="translate" additive="sum" keyTimes="0;1" values="-25 -32.125;-25 -32.125" keySplines="0 0 1 1" calcMode="spline"/><animate repeatCount="indefinite" dur="1.1666667s" begin="0s" xlink:href="#_R_G_L_1_G_M" fill="freeze" attributeName="opacity" from="1" to="0" keyTimes="0;0.4285714;0.4285715;1" values="1;1;0;0" keySplines="0 0 0 0;0 0 0 0;0 0 0 0" calcMode="spline"/><animate repeatCount="indefinite" dur="1.1666667s" begin="0s" xlink:href="#_R_G_L_0_G_M" fill="freeze" attributeName="opacity" from="0" to="1" keyTimes="0;0.5714286;0.5714321;1" values="0;0;1;1" keySplines="0 0 0 0;0 0 0 0;0 0 0 0" calcMode="spline"/><animate attributeType="XML" attributeName="opacity" dur="1s" from="0" to="1" xlink:href="#time_group"/></defs><g id="_R_G"><g id="_R_G_L_2_G" transform=" translate(25, 32.125)"><path id="_R_G_L_2_G_D_0_P_0" stroke="#f56c6d" stroke-linecap="round" stroke-linejoin="round" fill="none" stroke-width="2" stroke-opacity="1" d=" M46.38 34.03 C45.32,33.04 40.58,28.83 25,28.83 C9.42,28.83 4.68,33.03 3.62,34.03 C2.57,35.03 3.12,40.45 3.34,41.73 C3.57,43.01 4.51,43.6 5.16,43.48 C5.8,43.37 13.33,41.84 14.19,41.63 C14.77,41.49 15.27,40.82 15.54,39.94 C15.81,39.07 16.75,35.02 16.75,35.02 C16.75,35.02 19.1,34.33 25,34.33 C30.9,34.33 33.25,35.02 33.25,35.02 C33.25,35.02 34.19,39.07 34.46,39.95 C34.73,40.82 35.23,41.5 35.81,41.63 C36.65,41.82 44.12,43.37 44.84,43.49 C45.47,43.59 46.43,43.02 46.66,41.74 C46.88,40.45 47.43,35.03 46.38,34.03z "/></g><g id="_R_G_L_1_G_M"><g id="_R_G_L_1_G"><path id="_R_G_L_1_G_D_0_P_0" stroke="#f56c6d" stroke-linecap="round" stroke-linejoin="round" fill="none" stroke-width="2" stroke-opacity="1" d=" M25 16.17 C25,16.17 25,6.17 25,6.17 "/><path id="_R_G_L_1_G_D_0_P_1" stroke="#f56c6d" stroke-linecap="round" stroke-linejoin="round" fill="none" stroke-width="2" stroke-opacity="1" d=" M12.74 18.88 C12.74,18.88 8.52,9.82 8.52,9.82 "/><path id="_R_G_L_1_G_D_0_P_2" stroke="#f56c6d" stroke-linecap="round" stroke-linejoin="round" fill="none" stroke-width="2" stroke-opacity="1" d=" M37.26 18.88 C37.26,18.88 41.48,9.82 41.48,9.82 "/></g></g><g id="_R_G_L_0_G_M"><g id="_R_G_L_0_G"><path id="_R_G_L_0_G_D_0_P_0" stroke="#f56c6d" stroke-linecap="round" stroke-linejoin="round" fill="none" stroke-width="2" stroke-opacity="1" d=" M25 16.17 C25,16.17 25,6.17 25,6.17 "/><path id="_R_G_L_0_G_D_0_P_1" stroke="#f56c6d" stroke-linecap="round" stroke-linejoin="round" fill="none" stroke-width="2" stroke-opacity="1" d=" M12.74 18.88 C12.74,18.88 8.52,9.82 8.52,9.82 "/><path id="_R_G_L_0_G_D_0_P_2" stroke="#f56c6d" stroke-linecap="round" stroke-linejoin="round" fill="none" stroke-width="2" stroke-opacity="1" d=" M37.26 18.88 C37.26,18.88 41.48,9.82 41.48,9.82 "/></g></g></g><g id="time_group"/></svg>