<svg xmlns="http://www.w3.org/2000/svg" xmlns:xlink="http://www.w3.org/1999/xlink" preserveAspectRatio="xMidYMid meet" width="50" height="50" viewBox="0 0 50 50" style="width:100%;height:100%"><defs><animateMotion repeatCount="indefinite" dur="1.1666667s" begin="0s" xlink:href="#_R_G_L_4_G" fill="freeze" keyTimes="0;0.1071429;0.5;0.8928571;1" path="M28.65 31.8 C28.65,31.8 28.65,31.8 28.65,31.8 C26.96,30.01 18.52,21.05 18.52,21.05 C18.52,21.05 26.96,30.01 28.65,31.8 C28.65,31.8 28.65,31.8 28.65,31.8 " keyPoints="0;0;0.5;1;1" keySplines="0.333 0 0.667 1;0.333 0 0.667 1;0.333 0 0.667 1;0 0 0 0" calcMode="spline"/><animateTransform repeatCount="indefinite" dur="1.1666667s" begin="0s" xlink:href="#_R_G_L_4_G" fill="freeze" attributeName="transform" from="0" to="0" type="rotate" additive="sum" keyTimes="0;0.1071429;0.5;0.8928571;1" values="0;0;-12.804;0;0" keySplines="0.333 0 0.667 1;0.333 0 0.667 1;0.333 0 0.667 1;0 0 0 0" calcMode="spline"/><animateTransform repeatCount="indefinite" dur="1.1666667s" begin="0s" xlink:href="#_R_G_L_4_G" fill="freeze" attributeName="transform" from="-25.35 -22.201" to="-25.35 -22.201" type="translate" additive="sum" keyTimes="0;1" values="-25.35 -22.201;-25.35 -22.201" keySplines="0 0 1 1" calcMode="spline"/><animateMotion repeatCount="indefinite" dur="1.1666667s" begin="0s" xlink:href="#_R_G_L_3_G_N_3_T_0" fill="freeze" keyTimes="0;0.1071429;0.5;0.8928571;1" path="M24.35 24.9 C24.35,24.9 24.35,24.9 24.35,24.9 C23.33,24.09 18.23,20.02 18.23,20.02 C18.23,20.02 23.33,24.09 24.35,24.9 C24.35,24.9 24.35,24.9 24.35,24.9 " keyPoints="0;0;0.5;1;1" keySplines="0.333 0 0.667 1;0.333 0 0.667 1;0.333 0 0.667 1;0 0 0 0" calcMode="spline"/><animateTransform repeatCount="indefinite" dur="1.1666667s" begin="0s" xlink:href="#_R_G_L_3_G_N_3_T_0" fill="freeze" attributeName="transform" from="0" to="0" type="rotate" additive="sum" keyTimes="0;0.1071429;0.5;0.8928571;1" values="0;0;-9.673;0;0" keySplines="0.333 0 0.667 1;0.333 0 0.667 1;0.333 0 0.667 1;0 0 0 0" calcMode="spline"/><animateTransform repeatCount="indefinite" dur="1.1666667s" begin="0s" xlink:href="#_R_G_L_3_G_N_3_T_0" fill="freeze" attributeName="transform" from="-24.6 -22.549" to="-24.6 -22.549" type="translate" additive="sum" keyTimes="0;1" values="-24.6 -22.549;-24.6 -22.549" keySplines="0 0 1 1" calcMode="spline"/><animateMotion repeatCount="indefinite" dur="1.1666667s" begin="0s" xlink:href="#_R_G_L_2_G" fill="freeze" keyTimes="0;0.1071429;0.5;0.8928571;1" path="M24.35 24.9 C24.35,24.9 24.35,24.9 24.35,24.9 C23.33,24.09 18.23,20.02 18.23,20.02 C18.23,20.02 23.33,24.09 24.35,24.9 C24.35,24.9 24.35,24.9 24.35,24.9 " keyPoints="0;0;0.5;1;1" keySplines="0.333 0 0.667 1;0.333 0 0.667 1;0.333 0 0.667 1;0 0 0 0" calcMode="spline"/><animateTransform repeatCount="indefinite" dur="1.1666667s" begin="0s" xlink:href="#_R_G_L_2_G" fill="freeze" attributeName="transform" from="0" to="0" type="rotate" additive="sum" keyTimes="0;0.1071429;0.5;0.8928571;1" values="0;0;-9.673;0;0" keySplines="0.333 0 0.667 1;0.333 0 0.667 1;0.333 0 0.667 1;0 0 0 0" calcMode="spline"/><animateTransform repeatCount="indefinite" dur="1.1666667s" begin="0s" xlink:href="#_R_G_L_2_G" fill="freeze" attributeName="transform" from="-24.6 -22.549" to="-24.6 -22.549" type="translate" additive="sum" keyTimes="0;1" values="-24.6 -22.549;-24.6 -22.549" keySplines="0 0 1 1" calcMode="spline"/><animateMotion repeatCount="indefinite" dur="1.1666667s" begin="0s" xlink:href="#_R_G_L_1_G_N_1_T_0" fill="freeze" keyTimes="0;0.0357143;0.25;0.5;0.75;0.9642857;1" path="M18 18 C18,18 18,18 18,18 C18.23,18.21 19.38,19.25 19.38,19.25 C19.38,19.25 18,18 18,18 C18,18 19.38,19.25 19.38,19.25 C19.38,19.25 18.23,18.21 18,18 C18,18 18,18 18,18 " keyPoints="0;0;0.25;0.5;0.75;1;1" keySplines="0.333 0 0.667 1;0.333 0 0.667 1;0.333 0 0.667 1;0.333 0 0.667 1;0.333 0 0.667 1;0 0 0 0" calcMode="spline"/><animateTransform repeatCount="indefinite" dur="1.1666667s" begin="0s" xlink:href="#_R_G_L_1_G_N_1_T_0" fill="freeze" attributeName="transform" from="0" to="0" type="rotate" additive="sum" keyTimes="0;0.0357143;0.25;0.5;0.75;0.9642857;1" values="0;0;2.553;0;2.553;0;0" keySplines="0.333 0 0.667 1;0.333 0 0.667 1;0.333 0 0.667 1;0.333 0 0.667 1;0.333 0 0.667 1;0 0 0 0" calcMode="spline"/><animateTransform repeatCount="indefinite" dur="1.1666667s" begin="0s" xlink:href="#_R_G_L_1_G_N_1_T_0" fill="freeze" attributeName="transform" from="0.92229 0.90018" to="0.92229 0.90018" type="scale" additive="sum" keyTimes="0;1" values="0.92229 0.90018;0.92229 0.90018" keySplines="0 0 1 1" calcMode="spline"/><animateTransform repeatCount="indefinite" dur="1.1666667s" begin="0s" xlink:href="#_R_G_L_1_G_N_1_T_0" fill="freeze" attributeName="transform" from="-22 -22" to="-22 -22" type="translate" additive="sum" keyTimes="0;1" values="-22 -22;-22 -22" keySplines="0 0 1 1" calcMode="spline"/><animateMotion repeatCount="indefinite" dur="1.1666667s" begin="0s" xlink:href="#_R_G_L_0_G" fill="freeze" keyTimes="0;0.0357143;0.25;0.5;0.75;0.9642857;1" path="M18 18 C18,18 18,18 18,18 C18.23,18.21 19.38,19.25 19.38,19.25 C19.38,19.25 18,18 18,18 C18,18 19.38,19.25 19.38,19.25 C19.38,19.25 18.23,18.21 18,18 C18,18 18,18 18,18 " keyPoints="0;0;0.25;0.5;0.75;1;1" keySplines="0.333 0 0.667 1;0.333 0 0.667 1;0.333 0 0.667 1;0.333 0 0.667 1;0.333 0 0.667 1;0 0 0 0" calcMode="spline"/><animateTransform repeatCount="indefinite" dur="1.1666667s" begin="0s" xlink:href="#_R_G_L_0_G" fill="freeze" attributeName="transform" from="0" to="0" type="rotate" additive="sum" keyTimes="0;0.0357143;0.25;0.5;0.75;0.9642857;1" values="0;0;2.553;0;2.553;0;0" keySplines="0.333 0 0.667 1;0.333 0 0.667 1;0.333 0 0.667 1;0.333 0 0.667 1;0.333 0 0.667 1;0 0 0 0" calcMode="spline"/><animateTransform repeatCount="indefinite" dur="1.1666667s" begin="0s" xlink:href="#_R_G_L_0_G" fill="freeze" attributeName="transform" from="0.92229 0.90018" to="0.92229 0.90018" type="scale" additive="sum" keyTimes="0;1" values="0.92229 0.90018;0.92229 0.90018" keySplines="0 0 1 1" calcMode="spline"/><animateTransform repeatCount="indefinite" dur="1.1666667s" begin="0s" xlink:href="#_R_G_L_0_G" fill="freeze" attributeName="transform" from="-22 -22" to="-22 -22" type="translate" additive="sum" keyTimes="0;1" values="-22 -22;-22 -22" keySplines="0 0 1 1" calcMode="spline"/><animate attributeType="XML" attributeName="opacity" dur="1s" from="0" to="1" xlink:href="#time_group"/></defs><g id="_R_G"><g id="_R_G_L_4_G"><path id="_R_G_L_4_G_D_0_P_0" stroke="#f56c6d" stroke-linecap="round" stroke-linejoin="round" fill="none" stroke-width="2" stroke-opacity="1" d=" M5.8 28.1 C5.8,28.1 5,31.8 5,31.8 C5,31.8 38.1,39.4 38.1,39.4 C38.1,39.4 45.7,6.3 45.7,6.3 C45.7,6.3 40,5 40,5 "/><path id="_R_G_L_4_G_D_1_P_0" stroke="#f56c6d" stroke-linecap="round" stroke-linejoin="round" fill="none" stroke-width="2" stroke-opacity="1" d=" M35.5 31.6 C35.5,31.6 35.8,31.7 35.8,31.7 C35.8,31.7 40.9,9.3 40.9,9.3 C40.9,9.3 39.3,8.9 39.3,8.9 "/></g><g id="_R_G_L_3_G_N_3_T_0"><g id="_R_G_L_3_G" transform=" translate(31.125, 27.65) rotate(2.914) translate(0, 0)"><path id="_R_G_L_3_G_D_0_P_0" fill="#2c2d30" fill-opacity="1" fill-rule="nonzero" d=" M12.42 -22.03 C12.42,-22.03 8.05,11.94 8.05,11.94 C8.05,11.94 -26.29,7.53 -26.29,7.53 C-26.29,7.53 -21.92,-26.44 -21.92,-26.44 C-21.92,-26.44 12.42,-22.03 12.42,-22.03z "/><path id="_R_G_L_3_G_D_1_P_0" stroke="#f56c6d" stroke-linecap="round" stroke-linejoin="round" fill="none" stroke-width="6.2" stroke-opacity="1" d=" M12.42 -22.03 C12.42,-22.03 8.05,11.94 8.05,11.94 C8.05,11.94 -26.29,7.53 -26.29,7.53 C-26.29,7.53 -21.92,-26.44 -21.92,-26.44 C-21.92,-26.44 12.42,-22.03 12.42,-22.03z "/></g></g><g id="_R_G_L_2_G"><path id="_R_G_L_2_G_D_0_P_0" stroke="#2c2d30" stroke-linecap="round" stroke-linejoin="round" fill="none" stroke-width="2" stroke-opacity="1" d=" M5.3 32.4 C5.3,32.4 5,34.4 5,34.4 C5,34.4 38.5,40.1 38.5,40.1 C38.5,40.1 44.2,6.6 44.2,6.6 C44.2,6.6 35,5 35,5 "/><path id="_R_G_L_2_G_D_1_P_0" stroke="#2c2d30" stroke-linecap="round" stroke-linejoin="round" fill="none" stroke-width="2" stroke-opacity="1" d=" M35 32.4 C35,32.4 35.7,32.5 35.7,32.5 C35.7,32.5 39.6,9.8 39.6,9.8 C39.6,9.8 35,9.1 35,9.1 "/></g><g id="_R_G_L_1_G_N_1_T_0"><g id="_R_G_L_1_G" transform=" translate(28.398, 28.421) rotate(-0.91) scale(1.0532299999999999, 1.0532299999999999) translate(0, 0)"><path id="_R_G_L_1_G_D_0_P_0" fill="#2c2d30" fill-opacity="1" fill-rule="nonzero" d=" M10.25 -24.5 C10.25,-24.5 10.25,9.88 10.25,9.88 C10.25,9.88 -24.25,9.88 -24.25,9.88 C-24.25,9.88 -24.25,-24.5 -24.25,-24.5 C-24.25,-24.5 10.25,-24.5 10.25,-24.5z "/><path id="_R_G_L_1_G_D_1_P_0" stroke="#f56c6d" stroke-linecap="round" stroke-linejoin="round" fill="none" stroke-width="6.2" stroke-opacity="1" d=" M10.25 -24.5 C10.25,-24.5 10.25,9.88 10.25,9.88 C10.25,9.88 -24.25,9.88 -24.25,9.88 C-24.25,9.88 -24.25,-24.5 -24.25,-24.5 C-24.25,-24.5 10.25,-24.5 10.25,-24.5z "/></g></g><g id="_R_G_L_0_G"><path id="_R_G_L_0_G_D_0_P_0" stroke="#f56c6d" stroke-linecap="round" stroke-linejoin="round" fill="none" stroke-width="2" stroke-opacity="1" d=" M31 30.9 C30.7,26.7 25.2,27.3 24.3,25.1 C24.2,24.3 24.3,23.8 24.3,23.1 C24.6,22.9 25.3,21.8 25.4,20.8 C25.7,20.8 26.1,20.5 26.2,19.5 C26.3,18.9 26,18.6 25.8,18.5 C26.2,17.2 27.2,13.1 24.1,12.7 C23.8,12.3 23,12 22,12 C17.8,12.1 17.3,15.1 18.2,18.6 C18,18.7 17.8,19 17.8,19.6 C17.9,20.6 18.4,20.9 18.6,20.9 C18.7,21.9 19.3,23 19.7,23.2 C19.7,23.2 19.7,25.2 19.7,25.2 C18.9,27.4 13.3,26.8 13,31 "/><path id="_R_G_L_0_G_D_1_P_0" stroke="#f56c6d" stroke-linecap="round" stroke-linejoin="round" fill="none" stroke-width="2" stroke-opacity="1" d=" M5 5 C5,5 39,5 39,5 C39,5 39,39 39,39 C39,39 5,39 5,39 C5,39 5,24.8 5,24.8 C5,24.8 5,5 5,5z "/><path id="_R_G_L_0_G_D_2_P_0" stroke="#f56c6d" stroke-linecap="round" stroke-linejoin="round" fill="none" stroke-width="2" stroke-opacity="1" d=" M9 9 C9,9 35,9 35,9 C35,9 35,32 35,32 C35,32 9,32 9,32 C9,32 9,22.6 9,22.6 C9,22.6 9,9 9,9z "/></g></g><g id="time_group"/></svg>