<svg xmlns="http://www.w3.org/2000/svg" xmlns:xlink="http://www.w3.org/1999/xlink" preserveAspectRatio="xMidYMid meet" width="50" height="50" viewBox="0 0 50 50" style="width:100%;height:100%"><defs><animateTransform repeatCount="indefinite" dur="1.1666667s" begin="0s" xlink:href="#_R_G_L_1_G_D_0_P_0_G_0_T_0" fill="freeze" attributeName="transform" from="0" to="-180" type="rotate" additive="sum" keyTimes="0;1" values="0;-180" keySplines="0.167 0.167 0.833 0.833" calcMode="spline"/><animateTransform repeatCount="indefinite" dur="1.1666667s" begin="0s" xlink:href="#_R_G_L_0_G_D_0_P_0_G_0_T_0" fill="freeze" attributeName="transform" from="0" to="180" type="rotate" additive="sum" keyTimes="0;1" values="0;180" keySplines="0.167 0.167 0.833 0.833" calcMode="spline"/><animate attributeType="XML" attributeName="opacity" dur="1s" from="0" to="1" xlink:href="#time_group"/></defs><g id="_R_G"><g id="_R_G_L_1_G"><g id="_R_G_L_1_G_D_0_P_0_G_0_T_0" transform=" translate(16, 34)"><path id="_R_G_L_1_G_D_0_P_0" stroke="#f56c6d" stroke-linecap="round" stroke-linejoin="round" fill="none" stroke-width="2" stroke-opacity="1" d=" M13 1.6 C13,1.6 13,-1.6 13,-1.6 C13,-1.6 9.1,-2.2 9.1,-2.2 C8.9,-3.1 8.5,-4 8,-4.8 C8,-4.8 10.3,-8 10.3,-8 C10.3,-8 8,-10.4 8,-10.4 C8,-10.4 4.8,-8.1 4.8,-8.1 C4,-8.6 3.1,-8.9 2.2,-9.2 C2.2,-9.2 1.6,-13 1.6,-13 C1.6,-13 -1.6,-13 -1.6,-13 C-1.6,-13 -2.2,-9.2 -2.2,-9.2 C-3.1,-9 -4,-8.6 -4.8,-8.1 C-4.8,-8.1 -8,-10.4 -8,-10.4 C-8,-10.4 -10.3,-8.1 -10.3,-8.1 C-10.3,-8.1 -8.1,-4.9 -8.1,-4.9 C-8.6,-4.1 -8.9,-3.2 -9.2,-2.3 C-9.2,-2.3 -13,-1.6 -13,-1.6 C-13,-1.6 -13,1.6 -13,1.6 C-13,1.6 -9.2,2.3 -9.2,2.3 C-9,3.2 -8.6,4.1 -8.1,4.9 C-8.1,4.9 -10.4,8 -10.4,8 C-10.4,8 -8.1,10.3 -8.1,10.3 C-8.1,10.3 -4.9,8.1 -4.9,8.1 C-4.1,8.6 -3.2,8.9 -2.3,9.2 C-2.3,9.2 -1.7,13 -1.7,13 C-1.7,13 1.5,13 1.5,13 C1.5,13 2.2,9.2 2.2,9.2 C3.1,9 4,8.6 4.8,8.1 C4.8,8.1 8,10.4 8,10.4 C8,10.4 10.3,8.1 10.3,8.1 C10.3,8.1 8,4.9 8,4.9 C8.5,4.1 8.8,3.2 9.1,2.3 C9.1,2.3 13,1.6 13,1.6z "/></g><path id="_R_G_L_1_G_D_1_P_0" stroke="#f56c6d" stroke-linecap="round" stroke-linejoin="round" fill="none" stroke-width="2" stroke-opacity="1" d=" M16 38 C13.8,38 12,36.2 12,34 C12,31.8 13.8,30 16,30 C18.2,30 20,31.8 20,34 C20,36.2 18.2,38 16,38z "/></g><g id="_R_G_L_0_G"><g id="_R_G_L_0_G_D_0_P_0_G_0_T_0" transform=" translate(34.95, 15.1)"><path id="_R_G_L_0_G_D_0_P_0" stroke="#f56c6d" stroke-linecap="round" stroke-linejoin="round" fill="none" stroke-width="2" stroke-opacity="1" d=" M10.55 6 C10.55,6 11.75,3.2 11.75,3.2 C11.75,3.2 8.65,1.3 8.65,1.3 C8.75,0.4 8.75,-0.4 8.65,-1.3 C8.65,-1.3 11.75,-3.2 11.75,-3.2 C11.75,-3.2 10.65,-6 10.65,-6 C10.65,-6 7.05,-5.2 7.05,-5.2 C6.55,-5.9 5.95,-6.5 5.25,-7 C5.25,-7 6.05,-10.5 6.05,-10.5 C6.05,-10.5 3.25,-11.7 3.25,-11.7 C3.25,-11.7 1.35,-8.7 1.35,-8.7 C0.45,-8.8 -0.35,-8.9 -1.25,-8.7 C-1.25,-8.7 -3.15,-11.8 -3.15,-11.8 C-3.15,-11.8 -5.95,-10.7 -5.95,-10.7 C-5.95,-10.7 -5.25,-7.2 -5.25,-7.2 C-5.75,-6.7 -6.35,-6.1 -6.95,-5.4 C-6.95,-5.4 -10.45,-6.2 -10.45,-6.2 C-10.45,-6.2 -11.65,-3.4 -11.65,-3.4 C-11.65,-3.4 -8.65,-1.4 -8.65,-1.4 C-8.75,-0.5 -8.75,0.3 -8.65,1.2 C-8.65,1.2 -11.75,3.1 -11.75,3.1 C-11.75,3.1 -10.65,5.9 -10.65,5.9 C-10.65,5.9 -7.15,5.2 -7.15,5.2 C-6.65,5.9 -6.05,6.5 -5.35,7 C-5.35,7 -6.15,10.5 -6.15,10.5 C-6.15,10.5 -3.35,11.7 -3.35,11.7 C-3.35,11.7 -1.35,8.7 -1.35,8.7 C-0.45,8.8 0.35,8.8 1.25,8.7 C1.25,8.7 3.15,11.8 3.15,11.8 C3.15,11.8 5.95,10.7 5.95,10.7 C5.95,10.7 5.15,6.9 5.15,6.9 C5.85,6.4 6.45,5.8 6.95,5.1 C6.95,5.1 10.55,6 10.55,6z "/></g><path id="_R_G_L_0_G_D_1_P_0" stroke="#f56c6d" stroke-linecap="round" stroke-linejoin="round" fill="none" stroke-width="2" stroke-opacity="1" d=" M35 11 C32.79,11 31,12.79 31,15 C31,17.21 32.79,19 35,19 C37.21,19 39,17.21 39,15 C39,12.79 37.21,11 35,11z "/></g></g><g id="time_group"/></svg>