<svg xmlns="http://www.w3.org/2000/svg" xmlns:xlink="http://www.w3.org/1999/xlink" preserveAspectRatio="xMidYMid meet" width="50" height="50" viewBox="0 0 50 50" style="width:100%;height:100%"><defs><animate repeatCount="indefinite" dur="1.1666667s" begin="0s" xlink:href="#_R_G_L_1_G_D_0_P_0" fill="freeze" attributeName="d" attributeType="XML" from="M30.5 28 C29.67,28 29,28.67 29,29.5 C29,30.33 29.67,31 30.5,31 C31.33,31 32,30.33 32,29.5 C32,28.67 31.33,28 30.5,28z " to="M30.5 28 C29.67,28 29,28.67 29,29.5 C29,30.33 29.67,31 30.5,31 C31.33,31 32,30.33 32,29.5 C32,28.67 31.33,28 30.5,28z " keyTimes="0;0.1428571;0.2857143;0.4285714;1" values="M30.5 28 C29.67,28 29,28.67 29,29.5 C29,30.33 29.67,31 30.5,31 C31.33,31 32,30.33 32,29.5 C32,28.67 31.33,28 30.5,28z ;M30.5 28 C29.67,28 29,28.67 29,29.5 C29,30.33 29.67,31 30.5,31 C31.33,31 32,30.33 32,29.5 C32,28.67 31.33,28 30.5,28z ;M30.5 29.02 C29.67,29.02 29,29.01 29,29.5 C29,29.99 29.67,29.98 30.5,29.98 C31.33,29.98 32,29.99 32,29.5 C32,29.01 31.33,29.02 30.5,29.02z ;M30.5 28 C29.67,28 29,28.67 29,29.5 C29,30.33 29.67,31 30.5,31 C31.33,31 32,30.33 32,29.5 C32,28.67 31.33,28 30.5,28z ;M30.5 28 C29.67,28 29,28.67 29,29.5 C29,30.33 29.67,31 30.5,31 C31.33,31 32,30.33 32,29.5 C32,28.67 31.33,28 30.5,28z " keySplines="0.333 0 0.833 0.833;0.333 0 0.833 0.833;0.167 0.167 0.667 1;0 0 0 0" calcMode="spline"/><animate repeatCount="indefinite" dur="1.1666667s" begin="0s" xlink:href="#_R_G_L_0_G_D_0_P_0" fill="freeze" attributeName="d" attributeType="XML" from="M19.5 28 C18.67,28 18,28.67 18,29.5 C18,30.33 18.67,31 19.5,31 C20.33,31 21,30.33 21,29.5 C21,28.67 20.33,28 19.5,28z " to="M19.5 28 C18.67,28 18,28.67 18,29.5 C18,30.33 18.67,31 19.5,31 C20.33,31 21,30.33 21,29.5 C21,28.67 20.33,28 19.5,28z " keyTimes="0;0.1428571;0.2857143;0.4285714;1" values="M19.5 28 C18.67,28 18,28.67 18,29.5 C18,30.33 18.67,31 19.5,31 C20.33,31 21,30.33 21,29.5 C21,28.67 20.33,28 19.5,28z ;M19.5 28 C18.67,28 18,28.67 18,29.5 C18,30.33 18.67,31 19.5,31 C20.33,31 21,30.33 21,29.5 C21,28.67 20.33,28 19.5,28z ;M19.5 29 C18.67,29 18,28.99 18,29.5 C18,30.01 18.67,30 19.5,30 C20.33,30 21,30.01 21,29.5 C21,28.99 20.33,29 19.5,29z ;M19.5 28 C18.67,28 18,28.67 18,29.5 C18,30.33 18.67,31 19.5,31 C20.33,31 21,30.33 21,29.5 C21,28.67 20.33,28 19.5,28z ;M19.5 28 C18.67,28 18,28.67 18,29.5 C18,30.33 18.67,31 19.5,31 C20.33,31 21,30.33 21,29.5 C21,28.67 20.33,28 19.5,28z " keySplines="0.333 0 0.833 0.833;0.333 0 0.833 0.833;0.167 0.167 0.667 1;0 0 0 0" calcMode="spline"/><animate attributeType="XML" attributeName="opacity" dur="1s" from="0" to="1" xlink:href="#time_group"/></defs><g id="_R_G"><g id="_R_G_L_2_G"><path id="_R_G_L_2_G_D_0_P_0" stroke="#f56c6d" stroke-linecap="round" stroke-linejoin="round" fill="none" stroke-width="2" stroke-opacity="1" d=" M32.5 12.62 C32.5,12.62 30.35,17 24,17 C20.28,17 15,17.17 15,22 "/><path id="_R_G_L_2_G_D_1_P_0" stroke="#f56c6d" stroke-linecap="round" stroke-linejoin="round" fill="none" stroke-width="2" stroke-opacity="1" d=" M32.5 12.62 C32.5,12.62 36,17.05 36,22 "/><path id="_R_G_L_2_G_D_2_P_0" stroke="#f56c6d" stroke-linecap="round" stroke-linejoin="round" fill="none" stroke-width="2" stroke-opacity="1" d=" M38.27 25.74 C38.96,23.61 40,19.88 40,16 C40,12.82 38.58,7 33,7 C32.06,5.28 29.54,3 24.72,3 C15.02,3 10,8.64 10,17.6 C10,19.28 11.01,23.83 11.67,25.74 C11.11,26.09 9.77,27.21 10,29.2 C10.44,32.91 13.28,33.93 13.28,33.93 C13.57,36.76 16.95,43.04 21.68,45.22 C22.4,46.3 23.61,47 25,47 C26.39,47 27.61,46.29 28.33,45.22 C33.04,43.03 36.37,36.76 36.67,33.93 C36.67,33.93 39.53,32.95 39.97,29.24 C40.2,27.25 38.84,26.09 38.27,25.74z "/></g><g id="_R_G_L_1_G" transform=" translate(30.5, 28.5) translate(-30.5, -29.5)"><path id="_R_G_L_1_G_D_0_P_0" fill="#f56c6d" fill-opacity="1" fill-rule="nonzero" d=" M30.5 28 C29.67,28 29,28.67 29,29.5 C29,30.33 29.67,31 30.5,31 C31.33,31 32,30.33 32,29.5 C32,28.67 31.33,28 30.5,28z "/></g><g id="_R_G_L_0_G" transform=" translate(19.5, 28.5) translate(-19.5, -29.5)"><path id="_R_G_L_0_G_D_0_P_0" fill="#f56c6d" fill-opacity="1" fill-rule="nonzero" d=" M19.5 28 C18.67,28 18,28.67 18,29.5 C18,30.33 18.67,31 19.5,31 C20.33,31 21,30.33 21,29.5 C21,28.67 20.33,28 19.5,28z "/></g></g><g id="time_group"/></svg>